<svg width="193" height="193" viewBox="0 0 193 193" fill="none" xmlns="http://www.w3.org/2000/svg">
<path d="M38.4319 166.198C38.0884 166.198 37.7449 166.06 37.47 165.854C36.783 165.305 36.6456 164.343 37.1952 163.656C38.0884 162.556 35.8898 159.877 33.6225 157.129C28.6757 151.22 21.2555 142.288 31.4239 131.982C37.8136 125.524 37.6762 122.844 37.3326 121.951C36.7143 120.44 33.7599 120.096 32.7294 120.096C32.7294 120.096 32.7294 120.096 32.6606 120.096C31.7675 120.096 31.0804 119.409 31.0804 118.516C31.0804 117.623 31.7675 116.936 32.6606 116.936C33.279 116.936 38.638 117.004 40.2183 120.715C41.5924 123.944 39.4625 128.341 33.6225 134.181C25.5153 142.426 31.0804 149.09 36.0272 155.067C39.1877 158.846 42.142 162.488 39.6686 165.579C39.3251 165.992 38.8442 166.198 38.4319 166.198Z" fill="#C8DBF4"/>
<path d="M15.4843 151.907H49.2875L41.7986 184.13H22.9733L15.4843 151.907Z" fill="#D4E4F8"/>
<path d="M15.1407 153.35H49.631C50.4554 153.35 51.0738 152.731 51.0738 151.907C51.0738 151.082 50.4554 150.464 49.631 150.464H15.1407C14.3163 150.464 13.6979 151.082 13.6979 151.907C13.6979 152.731 14.3163 153.35 15.1407 153.35Z" fill="#9FC1F4"/>
<path d="M44.2721 117.966L12.3239 128.547C12.3239 128.547 0.781368 120.714 9.16346 117.21C5.17853 110.409 4.62889 97.0796 17.5456 93.2321C30.3935 89.3846 29.5003 108.141 29.5003 108.141C29.5003 108.141 45.3714 91.3771 44.6156 111.302C47.6386 110.477 60.4179 113.5 44.2721 117.966Z" fill="#C8DBF4"/>
<path d="M17.6143 132.463H56.3643C56.3643 132.463 66.6015 125.249 55.8834 125.593C58.0133 116.386 52.0359 106.286 38.5008 105.943C24.9658 105.599 29.7065 120.577 29.7065 120.577C29.7065 120.577 6.96493 115.149 13.8355 126.348C2.63648 126.829 8.40775 129.715 17.6143 132.463Z" fill="#D4E4F8"/>
<path d="M48.5317 134.524L18.0951 135.624C16.5835 135.692 15.1407 134.937 14.1101 133.494C12.9421 131.845 12.6673 129.852 17.5454 129.234C15.9652 124.425 19.4005 116.043 32.0423 115.356C44.6154 114.737 38.2945 126.348 38.2945 126.348C38.2945 126.348 57.326 118.035 50.8677 130.402C53.6846 130.265 64.2653 133.975 48.5317 134.524Z" fill="#C8DBF4"/>
<path d="M118.33 187.34L121.21 103.108L118.323 103.504L115.635 187.709L118.33 187.34Z" fill="#9FC1F4"/>
<path d="M160.567 187.247L161.599 103.017L164.244 103.533L163.4 187.8L160.567 187.247Z" fill="#9FC1F4"/>
<path d="M181.084 187.212L177.534 103.397L179.878 103.605L183.427 187.42L181.084 187.212Z" fill="#9FC1F4"/>
<path d="M180.28 100.336H100.714V103.863H180.28V100.336Z" fill="#C8DBF4"/>
<path d="M98.8202 186.311L107.006 102.603L103.972 102.739L95.9879 186.439L98.8202 186.311Z" fill="#9FC1F4"/>
<path opacity="0.2" d="M180.209 100.336H161.755V103.863H180.209V100.336Z" fill="#3A7CD5"/>
<path d="M142.315 73.4323H173.8C174.837 73.4323 175.55 74.4986 175.355 75.811L172.699 97.8755C172.57 99.1879 171.598 100.254 170.561 100.254H139.076C138.039 100.254 137.327 99.1879 137.521 97.8755L140.177 75.811C140.371 74.4986 141.343 73.4323 142.315 73.4323Z" fill="#9DB6FE"/>
<path d="M141.862 73.4323H173.347C174.384 73.4323 175.096 74.4986 174.902 75.811L172.246 97.8755C172.116 99.1879 171.144 100.254 170.108 100.254H138.622C137.586 100.254 136.873 99.1879 137.068 97.8755L139.724 75.811C139.853 74.4986 140.825 73.4323 141.862 73.4323Z" fill="#9DB6FE"/>
<path opacity="0.99" d="M139.251 99.0585C138.939 99.0585 138.689 98.9004 138.501 98.6633C138.314 98.3471 138.252 98.0308 138.314 97.6356L140.874 76.3698C140.999 75.4211 141.686 74.7096 142.373 74.7096H172.718C173.031 74.7096 173.28 74.8677 173.468 75.1049C173.655 75.4211 173.717 75.7373 173.655 76.1326L171.095 97.3984C170.97 98.3471 170.283 99.0585 169.596 99.0585H139.251Z" fill="white"/>
<mask id="mask0" mask-type="alpha" maskUnits="userSpaceOnUse" x="138" y="74" width="36" height="26">
<path opacity="0.99" d="M139.251 99.0585C138.939 99.0585 138.689 98.9004 138.501 98.6633C138.314 98.3471 138.252 98.0308 138.314 97.6356L140.874 76.3698C140.999 75.4211 141.686 74.7096 142.373 74.7096H172.718C173.031 74.7096 173.28 74.8677 173.468 75.1049C173.655 75.4211 173.717 75.7373 173.655 76.1326L171.095 97.3984C170.97 98.3471 170.283 99.0585 169.596 99.0585H139.251Z" fill="white"/>
</mask>
<g mask="url(#mask0)">
<path d="M148.348 99.3517L151.976 74.8887H146.736L144.586 87.01L143.376 99.3517H148.348Z" fill="#F1F4FA"/>
</g>
<path d="M129.423 99.3517H171.209C171.598 99.3517 171.857 99.7618 171.792 100.254H128.645C128.71 99.7618 129.034 99.3517 129.423 99.3517Z" fill="#9DB6FE"/>
<path d="M97.0903 177.357L91.9228 179.9L85.4428 169.073L90.6924 166.53L97.0903 177.357Z" fill="#FFB573"/>
<path d="M91.2665 179.079L97.3363 176.455C97.5824 176.373 97.8285 176.455 97.9105 176.619L100.535 180.638C100.781 181.048 100.535 181.704 100.043 181.868C97.9105 182.771 96.8442 183.099 94.1374 184.165C92.4969 184.903 88.5597 186.626 86.263 187.61C84.0484 188.594 82.9821 186.626 83.8023 186.052C87.6575 183.427 89.38 181.458 90.3643 179.736C90.6924 179.408 90.9384 179.161 91.2665 179.079Z" fill="#263238"/>
<path opacity="0.2" d="M92.9072 170.303L87.7397 172.845L91.0206 178.423L96.4342 176.126L92.9072 170.303Z" fill="black"/>
<path d="M89.0521 89.0988C89.0521 89.0988 72.1551 111.655 67.1516 122.647C61.656 134.704 87.9037 175.47 87.9037 175.47L97.5006 172.681C97.5006 172.681 75.719 132.53 78.6719 128.1C86.8743 115.715 110.624 89.3448 110.624 89.3448L89.0521 89.0988Z" fill="#2D1686"/>
<path opacity="0.3" d="M95.3679 106.734C90.7746 113.46 88.806 125.435 88.5599 133.31C91.1847 128.47 93.9735 123.385 96.5983 118.709C98.3208 114.28 100.043 109.933 101.684 106.242C101.274 103.699 98.895 101.648 95.3679 106.734Z" fill="black"/>
<path d="M98.4848 173.994L87.9857 178.751L84.9508 175.634L97.4185 169.975L98.4848 173.994Z" fill="#2D1686"/>
<path d="M100.453 43.6576C99.387 45.7902 98.3207 47.6768 97.1723 49.5633C96.024 51.4499 94.7936 53.3364 93.4812 55.141C92.8251 56.0432 92.1688 56.9455 91.5127 57.8478C90.7744 58.75 90.1182 59.6523 89.38 60.4725C87.9036 62.195 86.3451 63.9176 84.6226 65.558C84.2125 65.9682 83.7204 66.3783 83.3102 66.7884C82.8181 67.1985 82.408 67.6086 81.9158 67.9367L80.4394 69.0031C80.2753 69.0851 80.3574 69.0851 79.7832 69.4132C79.3731 69.6593 78.9629 69.8233 78.5528 69.9874C77.6506 70.3155 76.7483 70.3975 75.846 70.3154C74.9438 70.2334 74.0415 69.9053 73.2212 69.4132C72.8111 69.1671 72.401 68.839 72.0729 68.5109C71.9089 68.3469 71.7448 68.1828 71.5808 67.9367C71.4167 67.7727 71.2527 67.5266 71.2527 67.4446C70.8425 66.7884 70.5144 66.0502 70.2684 65.476C69.6942 64.1636 69.4481 63.0153 69.12 61.8669C68.5459 59.4882 68.2998 57.2736 68.1357 55.0589C67.9717 52.8443 67.8897 50.6296 67.9717 48.3329C68.0537 46.8565 69.2841 45.7082 70.7605 45.7902C71.9909 45.8722 73.0572 45.4621 73.3033 46.6104C74.2876 50.5476 75.3539 55.9612 76.7483 59.4882C77.0764 60.3085 77.4865 61.2108 77.8966 61.7849C78.0607 62.113 78.3068 62.3591 78.4708 62.6052C78.5528 62.6872 78.4708 62.5231 78.3888 62.4411C78.3067 62.3591 78.2247 62.2771 78.2247 62.195C78.0607 62.031 77.8966 61.8669 77.7326 61.7849C77.4045 61.5389 76.9944 61.4568 76.5842 61.3748C76.1741 61.2928 75.846 61.3748 75.4359 61.4568C75.1078 61.5389 74.5336 61.949 74.9438 61.6209L75.928 60.7186C76.5842 60.0624 77.2404 59.4062 77.8966 58.668C80.4394 55.7972 82.7361 52.5162 84.9507 49.0712C86.017 47.3487 87.0013 45.134 87.9856 43.4115C89.0519 41.689 89.7901 39.5564 90.6924 37.8338C92.2509 36.0293 96.4341 36.0293 98.4027 36.5215C101.027 37.3417 101.684 41.1148 100.453 43.6576Z" fill="#4E33B5"/>
<path d="M88.7239 54.4847C88.3137 56.3713 87.9036 59.3242 87.9036 61.8669C88.1497 61.6208 88.3958 61.3748 88.7239 61.0467C90.7745 58.914 92.661 56.6994 94.3015 54.4847C95.0397 53.5825 95.6959 52.5982 96.3521 51.6139C96.7622 50.5476 97.0903 49.5633 97.5005 48.497C97.5825 48.1689 97.7465 47.8408 97.8286 47.4306C95.1218 46.1183 90.2823 47.4306 88.7239 54.4847Z" fill="#2D1686"/>
<path d="M72.565 45.7901L69.6121 42.5912L66.6592 43.9856C66.6592 43.9856 67.1514 45.9542 68.2177 48.0048C68.8739 49.3172 70.5964 49.6453 71.6627 48.579C72.4009 47.8407 72.729 46.7744 72.565 45.7901Z" fill="#FFAE73"/>
<path d="M80.7828 169.283L78.4032 181.271L84.2766 182.437L86.6562 170.449L80.7828 169.283Z" fill="#FFB573"/>
<path d="M78.2295 180.642L84.8734 181.954C85.1195 182.036 85.2835 182.201 85.2015 182.365L84.2993 186.958C84.2172 187.45 83.561 187.778 83.0689 187.696C80.7722 187.204 79.7059 186.876 76.835 186.302C75.0305 185.974 70.109 185.153 67.5663 184.661C65.1876 184.169 65.7618 182.036 66.8281 182.118C71.7495 182.201 75.1946 181.626 77.1631 180.806C77.4912 180.56 77.9014 180.56 78.2295 180.642Z" fill="#263238"/>
<path opacity="0.2" d="M85.2014 175.884L79.3777 174.736L78.1473 180.888L84.0531 182.118L85.2014 175.884Z" fill="black"/>
<path d="M100.704 89.2671C100.704 89.2671 90.9433 116.171 88.0725 127.49C84.8735 139.876 76.0149 177.443 76.0149 177.443L86.7601 179.084C86.7601 179.084 95.8648 145.516 100.704 133.458C105.737 112.438 120.162 104.195 121.21 89.5132C114.648 89.5132 100.704 89.2671 100.704 89.2671Z" fill="#2D1686"/>
<path d="M87.1702 181.134L74.9833 178.263L75.8474 174.849L88.5646 178.263L87.1702 181.134Z" fill="#2D1686"/>
<path d="M88.4282 89.5945C88.4282 89.5945 87.5587 90.1975 86.8155 93.207C86.8155 93.207 117.215 94.258 120.588 93.5395C120.588 93.5395 121.307 90.2194 120.654 90.0655C119.962 89.9065 88.4282 89.5945 88.4282 89.5945Z" fill="#273037"/>
<path d="M103.926 89.5788C103.926 89.5788 99.4676 89.4379 97.9271 89.5431L97.3946 93.6046L103.234 93.8585L103.926 89.5788Z" fill="#69737A"/>
<path d="M92.497 40.1303C93.1531 38.0797 94.9577 36.5213 97.0083 36.1932C98.6488 35.9471 99.469 35.619 101.52 35.537C105.129 35.2909 111.116 35.537 115.218 35.7831C117.596 35.9471 120.057 36.2752 122.026 36.6033H122.108C124.24 36.9314 125.635 38.982 125.225 41.1146C124.158 46.6923 121.287 56.2071 120.795 65.3118C120.139 77.2873 112.347 79.1739 121.287 89.755L88.9699 89.1809C88.5598 80.8964 92.661 73.9243 93.3172 67.5265C94.9577 52.598 91.0205 44.8057 92.497 40.1303Z" fill="white"/>
<path d="M114.397 35.127C112.757 41.4428 106.441 51.6138 105.129 69.167C105.621 78.7639 107.425 92.3455 108.574 98.8254H123.748C124.076 95.7905 119.401 79.092 120.877 69.167C122.272 59.5702 126.537 47.7587 127.685 41.935C128.095 39.7203 127.767 37.9158 127.767 37.9158L123.748 36.9315C121.698 36.6034 118.253 35.4551 115.792 35.291C115.3 35.209 114.808 35.127 114.397 35.127Z" fill="#4E33B5"/>
<path d="M100.699 37.5056C105.867 40.3765 114.808 37.2596 114.808 37.2596C114.808 37.2596 113.413 34.3887 113.495 28.7291C113.495 28.483 113.495 28.1549 113.495 27.8268C112.921 27.5807 111.937 27.0065 110.788 26.4324L105.539 29.1392C105.539 29.1392 105.211 30.7797 105.047 33.5685C105.047 34.0606 104.965 34.6348 104.965 35.209C102.422 36.0292 100.699 37.5056 100.699 37.5056Z" fill="#FFAE73"/>
<path d="M105.621 29.2212C105.621 29.2212 105.293 30.8617 105.129 33.6505C109.64 33.4044 112.511 30.2055 113.495 28.7291C113.495 28.483 113.495 28.1549 113.495 27.8268C112.921 27.5807 111.937 27.0065 110.788 26.4324L105.621 29.2212Z" fill="#D79573"/>
<path d="M103.662 31.5339C103.662 31.5339 114.02 32.5247 114.47 26.0397C115.011 19.5547 116.632 15.4116 110.057 14.5109C103.482 13.6102 102.041 15.952 101.32 18.1136C100.6 20.1852 100.96 31.0836 103.662 31.5339Z" fill="#FFAE73"/>
<path d="M113.57 28.5614C113.57 28.5614 114.2 26.4899 113.3 24.9587C113.3 24.9587 114.291 22.9772 113.57 22.4367C112.849 21.8963 112.219 23.6076 111.859 23.2474C111.588 22.8871 110.147 21.0857 109.967 18.9241C109.787 16.7624 102.401 17.3929 101.591 17.483C100.69 17.6631 98.5284 15.6816 98.3483 14.5107C98.3483 14.5107 100.06 13.7901 100.87 13.0696C101.681 12.4391 107.625 7.93564 113.3 11.0881C118.974 14.3305 119.064 17.483 118.073 19.9148C117.083 22.3467 116.362 28.3813 113.57 28.5614Z" fill="#232729"/>
<path opacity="0.2" d="M118.991 82.701C118.909 82.701 118.827 82.701 118.827 82.619C115.382 78.0256 114.069 73.6783 114.069 73.6783C114.069 73.5963 114.069 73.4323 114.233 73.4323C114.315 73.4323 114.479 73.4322 114.479 73.5963C114.479 73.6783 115.792 77.8616 119.155 82.4549C119.237 82.5369 119.237 82.701 119.155 82.783C119.073 82.701 118.991 82.701 118.991 82.701Z" fill="white"/>
<path d="M121.288 46.2821C119.893 52.0238 120.139 59.242 121.288 66.4601C123.174 56.6172 124.322 48.4968 125.553 41.9348C124.158 41.0326 122.436 41.6888 121.288 46.2821Z" fill="#2D1686"/>
<path d="M89.3802 41.7709C90.2004 39.3922 91.0206 36.5214 91.0206 36.5214C91.0206 36.5214 101.52 35.127 102.34 35.127C100.535 41.1147 98.813 70.8895 98.813 70.8895C98.813 70.8895 94.9578 91.102 91.1027 98.8943L82.4901 97.4113C86.7554 88.5527 90.6925 73.5963 91.1027 67.8546C91.5128 62.195 87.9857 45.544 89.3802 41.7709Z" fill="#4E33B5"/>
<path d="M107.835 38.1619L106.687 39.2282L110.214 40.5406L109.804 39.2282L107.835 38.1619Z" fill="#E0E0E0"/>
<path d="M108.82 41.935C108.82 41.935 108.82 38.9001 107.507 38.1619C112.101 36.9316 115.136 34.4708 115.136 34.4708L117.186 35.2911C117.186 35.2911 115.792 38.7361 108.82 41.935Z" fill="white"/>
<path d="M105.867 38.0797C106.113 37.9977 106.359 38.1617 106.523 38.3258L107.097 39.31L103.406 39.6381L104.062 38.6539C104.144 38.4898 104.308 38.4078 104.39 38.4078L105.867 38.0797Z" fill="#E0E0E0"/>
<path d="M103.16 42.4271C103.16 42.4271 105.047 39.4742 107.836 38.1618C105.867 37.5876 104.555 34.6348 104.555 34.6348L102.586 35.0449C102.504 35.0449 100.289 39.3922 103.16 42.4271Z" fill="white"/>
<path d="M127.85 38.2437C127.85 38.2437 128.67 41.7707 129.162 42.9191C129.654 44.0674 130.064 45.7899 130.474 47.0203C131.295 49.399 131.623 51.4496 132.279 53.9103C133.673 58.7498 134.74 63.7533 135.15 69.0848C135.478 74.2524 135.396 79.0918 135.15 84.0132C134.904 88.9347 134.493 93.7741 133.919 98.6136C133.755 100.09 132.443 101.074 130.966 100.91C129.736 100.746 128.834 99.7619 128.67 98.6136C128.096 93.8562 127.685 89.0167 127.275 84.2593C127.029 81.8806 126.865 79.5019 126.619 77.1232C126.373 74.7445 126.127 72.4478 125.799 70.2332C125.143 65.8859 123.83 61.5386 122.354 57.1093C121.616 54.8946 120.877 52.762 120.057 50.5473C119.319 48.3327 118.417 46.118 117.596 44.0674L117.514 43.9854C116.448 41.2786 117.596 37.0954 120.549 37.0954C123.42 36.9313 127.85 38.2437 127.85 38.2437Z" fill="#4E33B5"/>
<path d="M128.67 98.0396L125.225 99.6801L131.048 101.731C131.048 101.731 134.986 100.5 133.099 98.3677L132.033 98.0396C130.392 97.4654 129.572 97.5475 128.67 98.0396Z" fill="#FFAE73"/>
<path d="M123.338 103.371L129.408 104.519L131.049 101.731L125.225 99.6799L123.338 103.371Z" fill="#FFAE73"/>
<path d="M107.179 38.49C107.179 38.49 107.754 41.3608 107.425 42.2631C107.425 42.2631 105.539 42.7553 104.309 41.853C104.226 41.853 105.375 40.1305 107.179 38.49Z" fill="#E34208"/>
<path d="M105.047 41.6068C105.047 41.6068 100.043 51.9418 99.7971 63.9174C99.551 76.3031 100.371 80.8964 100.371 80.8964L102.75 84.3414L104.226 80.4043C104.226 80.4043 101.93 64.4095 105.375 49.235C106.031 46.5282 107.015 41.2787 107.015 41.2787L105.047 41.6068Z" fill="#E34208"/>
<path d="M70.1043 47.5946C70.1043 47.5946 68.3818 46.9384 67.2334 46.0361C66.0851 45.0518 64.1165 42.6731 63.7884 42.427C63.4603 42.263 60.5074 35.2089 59.7692 34.7988C59.031 34.3887 60.8355 33.9785 62.0659 35.7831C63.2963 37.5876 65.675 40.1304 66.8233 40.2944C67.9716 40.4585 67.5615 38.4899 68.4638 38.2438C69.284 38.0798 69.202 38.3258 69.4481 38.5719C69.7762 38.9 68.6278 40.9506 69.4481 41.8529C70.2683 42.7551 70.0222 44.1495 70.5964 44.8878C71.1706 45.626 71.2526 44.5597 71.2526 44.5597L70.1043 47.5946Z" fill="#FFAE73"/>
<path d="M34.2402 2.20142H71.9116C76.2605 2.20142 80.0218 5.72759 80.2569 10.0765L81.6673 32.6441L82.1375 39.9903L74.3799 32.6441H36.1209C31.7719 32.6441 28.0107 29.1179 27.7756 24.769L26.8353 10.0765C26.6002 5.72759 29.8913 2.20142 34.2402 2.20142Z" fill="#9DB6FE"/>
<path d="M36.1797 12.9562H71.7941C72.4994 12.9562 73.0871 12.3685 73.0283 11.6633C72.9695 10.9581 72.3818 10.3704 71.6178 10.3704H36.0622C35.357 10.3704 34.7693 10.9581 34.828 11.6633C34.8868 12.3685 35.4745 12.9562 36.1797 12.9562Z" fill="white"/>
<path d="M36.5912 19.0096H72.2056C72.9108 19.0096 73.4985 18.4219 73.4397 17.7166C73.381 17.0114 72.7933 16.4237 72.0293 16.4237H36.4149C35.7096 16.4237 35.1219 17.0114 35.1807 17.7166C35.2395 18.4219 35.8859 19.0096 36.5912 19.0096Z" fill="white"/>
<path d="M49.109 25.0628H72.6169C73.3221 25.0628 73.9098 24.4751 73.851 23.7699C73.7923 23.0646 73.2046 22.4769 72.4406 22.4769H48.9327C48.2275 22.4769 47.6398 23.0646 47.6985 23.7699C47.7573 24.4751 48.4038 25.0628 49.109 25.0628Z" fill="white"/>
<path d="M47.5811 39.9315H9.90974C5.56078 39.9315 2.26968 43.4577 2.56353 47.8067L3.62138 64.3797L4.09154 71.7259L10.9676 64.3797H49.2266C53.5756 64.3797 56.8667 60.8535 56.5728 56.5046L56.0439 47.8067C55.6913 43.5165 51.93 39.9315 47.5811 39.9315Z" fill="#F25B24"/>
<path d="M46.9345 50.745H11.3201C10.6149 50.745 9.96844 50.1574 9.90967 49.4521C9.8509 48.7469 10.4386 48.1592 11.1438 48.1592H46.7582C47.4635 48.1592 48.1099 48.7469 48.1687 49.4521C48.2275 50.1574 47.6985 50.745 46.9345 50.745Z" fill="white"/>
<path d="M35.1807 56.7984H11.6728C10.9676 56.7984 10.3211 56.2107 10.2623 55.5055C10.2036 54.8002 10.7913 54.2125 11.4965 54.2125H35.0043C35.7096 54.2125 36.356 54.8002 36.4148 55.5055C36.4736 56.2107 35.9447 56.7984 35.1807 56.7984Z" fill="white"/>
<path d="M38.5893 71.6671H76.2607C80.6096 71.6671 84.3709 75.1933 84.6059 79.5423L85.7226 97.1731L86.1927 104.519L78.4351 97.1731H40.2349C35.8859 97.1731 32.1247 93.647 31.8896 89.298L31.2431 79.4835C30.9493 75.2521 34.2991 71.6671 38.5893 71.6671Z" fill="#9DB6FE"/>
<path d="M53.7518 83.4798C53.8694 85.0078 55.1623 86.242 56.6903 86.242C58.2183 86.242 59.3937 85.0078 59.2762 83.4798C59.1586 81.9518 57.8657 80.7177 56.3377 80.7177C54.8097 80.7177 53.6343 81.9518 53.7518 83.4798Z" fill="white"/>
<path d="M43.5258 83.4798C43.6434 85.0078 44.9363 86.242 46.4643 86.242C47.9923 86.242 49.1677 85.0078 49.0502 83.4798C48.9326 81.9518 47.6397 80.7177 46.1117 80.7177C44.5837 80.7177 43.4671 81.9518 43.5258 83.4798Z" fill="white"/>
<path d="M65.0943 83.4798C65.2119 85.0078 66.5048 86.242 68.0328 86.242C69.5608 86.242 70.7362 85.0078 70.6187 83.4798C70.5011 81.9518 69.2082 80.7177 67.6802 80.7177C66.1522 80.7177 64.9768 81.9518 65.0943 83.4798Z" fill="white"/>
<path d="M141.458 78.2892H145.373L145.143 79.4186H141.229L141.458 78.2892Z" fill="#D4E4F8"/>
<path d="M146.908 77.6259H150.822L150.593 78.7553H146.678L146.908 77.6259Z" fill="#9FC1F4"/>
<path d="M157.802 79.7375C157.882 79.2559 158.299 78.9032 158.788 78.9032H170.62C171.239 78.9032 171.709 79.459 171.606 80.0689L170.991 83.731H158.313C157.694 83.731 157.224 83.1752 157.326 82.5653L157.802 79.7375Z" fill="#DCE9FC"/>
<path d="M155.835 92.5066C155.916 92.025 156.333 91.6722 156.821 91.6722H168.654C169.272 91.6722 169.742 92.228 169.64 92.8379L169.025 96.5H156.346C155.728 96.5 155.258 95.9442 155.36 95.3343L155.835 92.5066Z" fill="#DCE9FC"/>
<path d="M151.493 85.7036C151.574 85.222 151.991 84.8693 152.48 84.8693H164.312C164.93 84.8693 165.401 85.425 165.298 86.0349L164.823 88.8627C164.742 89.3443 164.325 89.697 163.837 89.697H150.823L151.493 85.7036Z" fill="#9FC1F4"/>
<path d="M141.208 79.9094H145.123L144.894 81.0388H140.979L141.208 79.9094Z" fill="#D4E4F8"/>
<path d="M146.658 79.2461H150.573L150.344 80.3755H146.429L146.658 79.2461Z" fill="#9FC1F4"/>
<path d="M140.959 81.7272H144.874L144.645 82.8566H140.73L140.959 81.7272Z" fill="#D4E4F8"/>
<path d="M146.409 81.0638H150.324L150.095 82.1933H146.18L146.409 81.0638Z" fill="#9FC1F4"/>
<path d="M146.129 82.6842H150.043L149.814 83.8136H145.9L146.129 82.6842Z" fill="#9FC1F4"/>
<path d="M140.726 83.3475H144.641L144.412 84.4769H140.497L140.726 83.3475Z" fill="#D4E4F8"/>
<path d="M145.848 84.3046H149.763L149.534 85.434H145.619L145.848 84.3046Z" fill="#9FC1F4"/>
<circle cx="147.092" cy="78.1575" r="0.74567" fill="#D4E4F8"/>
<circle cx="146.779" cy="79.8602" r="0.74567" fill="#D4E4F8"/>
<circle cx="146.479" cy="81.5955" r="0.74567" fill="#D4E4F8"/>
<circle cx="146.199" cy="83.2979" r="0.74567" fill="#D4E4F8"/>
<circle cx="145.869" cy="85.0003" r="0.74567" fill="#D4E4F8"/>
</svg>
