<svg width="193" height="193" viewBox="0 0 193 193" fill="none" xmlns="http://www.w3.org/2000/svg">
<g opacity="0.46">
<path opacity="0.46" d="M181.202 44.1887H82.4901C81.4322 44.1887 80.6962 43.2227 80.9722 42.2108L90.1718 6.79238C90.3558 6.10241 90.9997 5.59644 91.6897 5.59644H190.355C191.413 5.59644 192.149 6.56239 191.873 7.57435L182.674 42.9927C182.536 43.7287 181.892 44.1887 181.202 44.1887Z" fill="#BFD9FF"/>
<g opacity="0.46">
<path opacity="0.46" d="M130.374 14.0141H96.0136C95.5536 14.0141 95.2317 13.6461 95.2317 13.2322C95.2317 12.8182 95.5996 12.4502 96.0136 12.4502H130.374C130.834 12.4502 131.156 12.8182 131.156 13.2322C131.156 13.6461 130.834 14.0141 130.374 14.0141Z" fill="#A9C2FF"/>
<path opacity="0.46" d="M127.752 29.8374H93.3917C92.9317 29.8374 92.6097 29.4694 92.6097 29.0554C92.6097 28.6414 92.9777 28.2734 93.3917 28.2734H127.752C128.212 28.2734 128.534 28.6414 128.534 29.0554C128.534 29.4694 128.166 29.8374 127.752 29.8374Z" fill="#A9C2FF"/>
<path opacity="0.46" d="M142.196 23.8578H107.835C107.375 23.8578 107.053 23.4898 107.053 23.0758C107.053 22.6618 107.421 22.2938 107.835 22.2938H142.196C142.656 22.2938 142.978 22.6618 142.978 23.0758C142.978 23.4898 142.61 23.8578 142.196 23.8578Z" fill="#A9C2FF"/>
<path opacity="0.46" d="M105.443 19.3039H95.1397C94.6797 19.3039 94.3577 18.9359 94.3577 18.522C94.3577 18.108 94.7257 17.74 95.1397 17.74H105.443C105.903 17.74 106.225 18.108 106.225 18.522C106.225 18.9359 105.903 19.3039 105.443 19.3039Z" fill="#A9C2FF"/>
<path opacity="0.46" d="M104.063 23.8578H93.7597C93.2998 23.8578 92.9778 23.4898 92.9778 23.0758C92.9778 22.6618 93.3458 22.2938 93.7597 22.2938H104.063C104.523 22.2938 104.845 22.6618 104.845 23.0758C104.845 23.4898 104.477 23.8578 104.063 23.8578Z" fill="#A9C2FF"/>
<path opacity="0.46" d="M148.083 14.0141H135.848C135.388 14.0141 135.066 13.6461 135.066 13.2322C135.066 12.8182 135.434 12.4502 135.848 12.4502H148.083C148.543 12.4502 148.865 12.8182 148.865 13.2322C148.865 13.6461 148.497 14.0141 148.083 14.0141Z" fill="#A9C2FF"/>
<path opacity="0.46" d="M141.828 36.7832H123.566C123.428 36.7832 123.336 36.7372 123.244 36.6452C123.152 36.5532 123.152 36.4152 123.152 36.2772L123.98 33.1494C124.026 32.9654 124.21 32.8274 124.394 32.8274H142.656C142.794 32.8274 142.886 32.8734 142.978 32.9654C143.07 33.0574 143.07 33.1954 143.07 33.3334L142.242 36.4612C142.196 36.6452 142.012 36.7832 141.828 36.7832ZM123.704 36.2312H141.736L142.472 33.3334H124.44L123.704 36.2312Z" fill="#84AEE5"/>
<path opacity="0.46" d="M119.105 36.7832H100.843C100.705 36.7832 100.613 36.7372 100.521 36.6452C100.429 36.5532 100.429 36.4152 100.429 36.2772L101.257 33.1494C101.303 32.9654 101.487 32.8274 101.671 32.8274H119.933C120.071 32.8274 120.163 32.8734 120.255 32.9654C120.347 33.0574 120.347 33.1954 120.347 33.3334L119.519 36.4612C119.473 36.6452 119.289 36.7832 119.105 36.7832ZM100.981 36.2312H119.013L119.749 33.3334H101.763L100.981 36.2312Z" fill="#84AEE5"/>
</g>
<path opacity="0.46" d="M173.934 31.9532C173.014 30.7113 169.196 29.7913 168.138 28.5494C167.586 27.9054 167.586 26.7095 167.724 25.7435C168.092 25.5135 168.414 25.2835 168.598 25.0535C168.92 24.5936 169.288 23.9496 169.61 23.2596C169.702 23.3516 169.84 23.4436 170.07 23.4436C170.576 23.4436 172.462 20.8217 171.956 20.2238C171.68 19.9018 171.22 20.1778 170.898 20.4998C171.404 19.3498 171.772 18.4758 171.772 18.4758C171.818 18.3379 171.864 18.1999 171.91 18.0159C172.646 14.98 170.806 12.5421 167.816 12.5421C164.78 12.5421 161.745 14.98 160.963 18.0159C160.917 18.1539 160.917 18.2919 160.871 18.4758C160.871 18.4758 160.779 19.3498 160.733 20.4998C160.549 20.1778 160.273 19.9018 159.813 20.2238C159.031 20.8217 159.629 23.3976 160.135 23.4436C160.319 23.4436 160.503 23.3516 160.641 23.2596C160.641 23.9496 160.687 24.5936 160.779 25.0535C160.871 25.3295 161.147 25.6055 161.469 25.9275C161.101 26.8935 160.503 27.9974 159.721 28.5954C158.065 29.8373 153.787 30.7573 152.223 31.9992C150.843 33.1032 149.555 36.415 149.325 37.059H174.348C174.394 36.323 174.808 33.0572 173.934 31.9532Z" fill="#8DBCF8"/>
</g>
<path d="M163.998 72.6613H65.3329C64.7349 72.6613 64.2289 72.3853 63.861 71.9254C63.493 71.4654 63.401 70.8674 63.539 70.3154L72.7385 34.897C72.9685 34.0691 73.7045 33.5171 74.5325 33.5171H173.198C173.796 33.5171 174.302 33.7931 174.67 34.2531C175.038 34.713 175.13 35.311 174.992 35.863L165.792 71.2354C165.608 72.0634 164.872 72.6613 163.998 72.6613ZM74.5325 34.0691C73.9345 34.0691 73.4285 34.483 73.2445 35.035L64.0449 70.4534C63.9529 70.8674 64.0449 71.2814 64.2749 71.6034C64.5049 71.9254 64.9189 72.1093 65.3329 72.1093H163.998C164.596 72.1093 165.148 71.6954 165.286 71.1434L174.486 35.771C174.578 35.357 174.486 34.943 174.256 34.621C174.026 34.2991 173.612 34.1151 173.198 34.1151H74.5325V34.0691Z" fill="#7094D8"/>
<path d="M162.159 69.7636H63.493C62.435 69.7636 61.6991 68.7977 61.975 67.7857L71.1746 32.3673C71.3586 31.6774 72.0026 31.1714 72.6926 31.1714H171.358C172.416 31.1714 173.152 32.1373 172.876 33.1493L163.676 68.5677C163.538 69.2577 162.894 69.7636 162.159 69.7636Z" fill="#B4CEFF"/>
<path d="M154.201 64.4737H132.03C131.018 64.4737 130.374 63.6458 130.65 62.6338L136.216 40.1408C136.492 39.1289 137.504 38.3009 138.516 38.3009H160.687C161.699 38.3009 162.343 39.1289 162.067 40.1408L156.501 62.5878C156.271 63.6458 155.213 64.4737 154.201 64.4737Z" fill="#B7DEFF"/>
<path d="M143.299 64.566L145.231 56.7923L142.057 55.4584C142.057 55.4584 136.123 57.6203 135.618 58.1722C135.204 58.6322 133.042 63.14 132.398 64.612H143.299V64.566Z" fill="#023F61"/>
<path d="M154.293 64.5658C154.339 63.0939 154.477 58.5861 154.293 58.1261C154.063 57.6201 149.187 55.4122 149.187 55.4122L145.323 56.7462L143.391 64.5198H154.293V64.5658Z" fill="#023F61"/>
<path d="M145.323 64.5659L148.359 57.8042L141.827 58.1722L141.183 64.5659H145.323Z" fill="#BEBECF"/>
<path d="M143.253 53.9863L141.827 54.9063L140.908 57.1142L140.632 60.196L142.655 59.3681L144.219 61.254L146.289 59.5521L147.577 60.748L149.509 56.6082L149.141 54.0783L148.359 53.7103L143.253 53.9863Z" fill="#DEE0E8"/>
<path d="M143.667 48.0985C143.667 48.0985 143.207 46.9946 142.195 47.7305C141.229 48.4665 142.379 51.2264 143.069 50.3984C143.805 49.5704 143.667 48.0985 143.667 48.0985Z" fill="#F99352"/>
<path d="M150.659 48.0526C150.659 48.0526 151.579 46.9026 152.315 47.5466C153.005 48.1906 150.705 51.1344 150.337 50.3525C149.923 49.5245 150.659 48.0526 150.659 48.0526Z" fill="#F99352"/>
<path d="M148.497 56.1483L149.509 50.8125L143.713 51.3185L142.425 56.3323C142.425 56.3323 143.437 58.6781 144.541 59.7361C144.495 59.7361 147.899 56.8382 148.497 56.1483Z" fill="#F99352"/>
<path d="M153.189 45.8906C152.959 46.5345 152.453 46.7185 152.407 47.0865C152.361 47.4545 152.131 48.4205 151.763 48.7884C151.395 49.1564 151.211 49.2944 151.211 49.2944C151.211 49.2944 146.243 50.6744 143.713 48.7424C143.713 48.7424 143.529 48.0065 143.713 47.1325C143.897 46.2586 143.483 46.1206 143.943 45.6606C144.449 45.2466 144.587 44.8326 144.587 44.3726C144.587 43.8667 144.633 43.3147 145.139 42.8087C145.645 42.3027 146.105 42.4867 146.565 42.0728C146.565 42.0728 147.301 40.8768 148.267 40.6928C149.233 40.5548 151.257 40.0488 152.453 41.5208C153.649 42.9927 153.097 44.2807 153.465 44.7406C153.787 45.2466 153.189 45.8906 153.189 45.8906Z" fill="#713336"/>
<path d="M143.667 47.1785C143.667 47.1785 141.321 53.6642 145.737 54.1242C149.647 54.2162 151.027 49.4324 151.579 46.9945C152.131 44.5566 151.809 41.9807 148.681 42.0727C145.553 42.1647 143.989 45.7065 143.667 47.1785Z" fill="#FFAE73"/>
<path d="M144.863 44.8787C144.863 44.8787 145.139 45.3846 144.863 45.9366C144.587 46.4426 143.851 46.6726 143.759 47.3626C143.667 48.0525 143.345 49.4785 143.115 49.5705C142.931 49.6165 143.069 48.1905 143.069 47.6845C143.115 47.1786 143.483 45.1087 144.541 43.7747C145.599 42.4408 146.243 41.8888 148.083 41.6128C149.923 41.2908 151.349 42.0728 151.855 43.2227C152.361 44.3727 151.533 47.2246 151.533 47.2246C151.533 47.2246 151.671 45.8446 151.211 45.5226C150.751 45.2007 150.383 44.9707 150.429 44.7867C150.521 44.6027 148.957 45.2927 147.393 44.7867C145.829 44.2807 145.369 44.5107 145.093 44.6947C144.955 44.7407 144.863 44.8787 144.863 44.8787Z" fill="#713336"/>
<path d="M139.803 64.428L139.619 64.336L140.079 63.37L138.239 62.45L138.285 62.358C139.113 60.3341 140.401 57.2983 140.447 57.1603L140.677 57.2063C140.631 57.3443 138.975 61.3001 138.561 62.312L140.447 63.232L139.803 64.428Z" fill="#022755"/>
<path d="M146.795 64.3817V63.2778L149.141 62.3578C149.233 61.3919 149.555 57.344 149.555 57.2061L149.785 57.2521C149.739 57.39 149.509 60.4259 149.371 62.4498V62.5418L147.025 63.4618V64.4277H146.795V64.3817Z" fill="#022755"/>
<path d="M154.201 64.7039H132.03C131.478 64.7039 130.972 64.4739 130.65 64.0599C130.328 63.646 130.236 63.094 130.374 62.496L135.986 40.049C136.262 38.8991 137.412 37.9791 138.562 37.9791H160.733C161.285 37.9791 161.791 38.2091 162.113 38.6231C162.435 39.0371 162.526 39.5891 162.388 40.187L156.777 62.68C156.501 63.784 155.351 64.7039 154.201 64.7039ZM138.516 38.5771C137.596 38.5771 136.676 39.3131 136.446 40.233L130.88 62.68C130.788 63.094 130.834 63.508 131.064 63.784C131.294 64.0599 131.616 64.1979 132.03 64.1979H154.201C155.121 64.1979 156.041 63.462 156.271 62.542L161.883 40.095C161.975 39.681 161.929 39.2671 161.699 38.9911C161.469 38.7151 161.147 38.5771 160.733 38.5771H138.516Z" fill="white"/>
<path d="M111.377 40.4168H77.0166C76.5566 40.4168 76.2346 40.0489 76.2346 39.6349C76.2346 39.2209 76.6026 38.8529 77.0166 38.8529H111.377C111.837 38.8529 112.159 39.2209 112.159 39.6349C112.159 40.0489 111.791 40.4168 111.377 40.4168Z" fill="#73A5FF"/>
<path d="M108.709 56.2861H74.3486C73.8886 56.2861 73.5666 55.9181 73.5666 55.5041C73.5666 55.0902 73.9346 54.7222 74.3486 54.7222H108.709C109.169 54.7222 109.491 55.0902 109.491 55.5041C109.491 55.9181 109.169 56.2861 108.709 56.2861Z" fill="#73A5FF"/>
<path d="M123.152 50.2603H88.7918C88.3318 50.2603 88.0098 49.8924 88.0098 49.4784C88.0098 49.0644 88.3778 48.6964 88.7918 48.6964H123.152C123.612 48.6964 123.934 49.0644 123.934 49.4784C123.934 49.8924 123.612 50.2603 123.152 50.2603Z" fill="#73A5FF"/>
<path d="M86.446 45.7066H76.1424C75.6824 45.7066 75.3605 45.3386 75.3605 44.9247C75.3605 44.5107 75.7284 44.1427 76.1424 44.1427H86.446C86.9059 44.1427 87.2279 44.5107 87.2279 44.9247C87.2279 45.3386 86.8599 45.7066 86.446 45.7066Z" fill="#73A5FF"/>
<path d="M85.0202 50.2603H74.7166C74.2567 50.2603 73.9347 49.8924 73.9347 49.4784C73.9347 49.0644 74.3027 48.6964 74.7166 48.6964H85.0202C85.4802 48.6964 85.8021 49.0644 85.8021 49.4784C85.8021 49.8924 85.4802 50.2603 85.0202 50.2603Z" fill="#73A5FF"/>
<path d="M129.04 40.4168H116.805C116.345 40.4168 116.023 40.0489 116.023 39.6349C116.023 39.2209 116.391 38.8529 116.805 38.8529H129.04C129.5 38.8529 129.822 39.2209 129.822 39.6349C129.822 40.0489 129.5 40.4168 129.04 40.4168Z" fill="#73A5FF"/>
<path d="M122.83 63.1858H104.523C104.385 63.1858 104.293 63.1398 104.201 63.0478C104.109 62.9558 104.109 62.8178 104.109 62.6798L104.937 59.552C104.983 59.368 105.167 59.23 105.351 59.23H123.612C123.75 59.23 123.842 59.276 123.934 59.368C124.026 59.46 124.026 59.598 124.026 59.736L123.198 62.8638C123.152 63.0478 123.014 63.1858 122.83 63.1858ZM104.707 62.6338H122.738L123.474 59.736H105.443L104.707 62.6338Z" fill="#7094D8"/>
<path d="M100.107 63.1858H81.8461C81.7081 63.1858 81.6161 63.1398 81.5241 63.0478C81.4321 62.9558 81.4321 62.8178 81.4321 62.6798L82.26 59.552C82.306 59.368 82.49 59.23 82.674 59.23H100.935C101.073 59.23 101.165 59.276 101.257 59.368C101.349 59.46 101.349 59.598 101.349 59.736L100.521 62.8638C100.429 63.0478 100.291 63.1858 100.107 63.1858ZM81.9841 62.6338H100.015L100.751 59.736H82.72L81.9841 62.6338Z" fill="#7094D8"/>
<path d="M160.677 116.238H68.0999C67.1072 116.238 66.4167 115.332 66.6756 114.382L75.3076 81.1492C75.4802 80.5019 76.0845 80.0271 76.7319 80.0271H169.309C170.302 80.0271 170.993 80.9335 170.734 81.883L162.102 115.116C161.972 115.806 161.368 116.238 160.677 116.238Z" fill="#F25B24"/>
<path d="M113.029 87.9254H80.7887C80.3571 87.9254 80.055 87.5802 80.055 87.1917C80.055 86.8033 80.4003 86.458 80.7887 86.458H113.029C113.461 86.458 113.763 86.8033 113.763 87.1917C113.763 87.5802 113.417 87.9254 113.029 87.9254Z" fill="white" fill-opacity="0.64"/>
<path d="M110.526 102.772H78.2854C77.8538 102.772 77.5517 102.427 77.5517 102.039C77.5517 101.65 77.897 101.305 78.2854 101.305H110.526C110.957 101.305 111.259 101.65 111.259 102.039C111.259 102.427 110.957 102.772 110.526 102.772Z" fill="white" fill-opacity="0.64"/>
<path d="M124.078 97.1615H91.8378C91.4062 97.1615 91.1041 96.8162 91.1041 96.4278C91.1041 96.0394 91.4493 95.6941 91.8378 95.6941H124.078C124.51 95.6941 124.812 96.0394 124.812 96.4278C124.812 96.8162 124.51 97.1615 124.078 97.1615Z" fill="white" fill-opacity="0.64"/>
<path d="M89.6365 92.8888H79.9687C79.5371 92.8888 79.235 92.5435 79.235 92.1551C79.235 91.7667 79.5803 91.4214 79.9687 91.4214H89.6365C90.0681 91.4214 90.3702 91.7667 90.3702 92.1551C90.3702 92.5435 90.0249 92.8888 89.6365 92.8888Z" fill="white" fill-opacity="0.64"/>
<path d="M88.2987 97.1615H78.6309C78.1993 97.1615 77.8972 96.8162 77.8972 96.4278C77.8972 96.0394 78.2425 95.6941 78.6309 95.6941H88.2987C88.7303 95.6941 89.0324 96.0394 89.0324 96.4278C89.0324 96.8162 88.7303 97.1615 88.2987 97.1615Z" fill="white" fill-opacity="0.64"/>
<path d="M129.603 87.9254H118.122C117.69 87.9254 117.388 87.5802 117.388 87.1917C117.388 86.8033 117.734 86.458 118.122 86.458H129.603C130.034 86.458 130.336 86.8033 130.336 87.1917C130.336 87.5802 130.034 87.9254 129.603 87.9254Z" fill="white" fill-opacity="0.64"/>
<path d="M123.776 109.246H106.641C106.512 109.246 106.426 109.203 106.339 109.117C106.253 109.03 106.253 108.901 106.253 108.771L107.03 105.837C107.073 105.664 107.246 105.534 107.418 105.534H124.553C124.682 105.534 124.768 105.578 124.855 105.664C124.941 105.75 124.941 105.88 124.941 106.009L124.164 108.944C124.078 109.16 123.948 109.246 123.776 109.246ZM106.771 108.771H123.689L124.38 106.052H107.461L106.771 108.771Z" fill="white" fill-opacity="0.64"/>
<path d="M102.455 109.246H85.3208C85.1913 109.246 85.105 109.203 85.0187 109.117C84.9324 109.03 84.9324 108.901 84.9324 108.771L85.7092 105.837C85.7524 105.664 85.925 105.534 86.0977 105.534H103.232C103.362 105.534 103.448 105.578 103.534 105.664C103.62 105.75 103.62 105.88 103.62 106.009L102.844 108.944C102.757 109.16 102.628 109.246 102.455 109.246ZM85.4503 108.771H102.369L103.059 106.052H86.1408L85.4503 108.771Z" fill="white" fill-opacity="0.64"/>
<path d="M153.901 104.758C153.038 103.592 149.456 102.729 148.463 101.564C147.945 100.96 147.945 99.8374 148.075 98.931C148.42 98.7152 148.722 98.4994 148.895 98.2836C149.197 97.852 149.542 97.2478 149.844 96.6004C149.931 96.6867 150.06 96.773 150.276 96.773C150.751 96.773 152.52 94.3129 152.046 93.7519C151.787 93.4497 151.355 93.7087 151.053 94.0108C151.528 92.9318 151.873 92.1118 151.873 92.1118C151.916 91.9823 151.959 91.8528 152.002 91.6802C152.693 88.8317 150.967 86.5442 148.161 86.5442C145.313 86.5442 142.464 88.8317 141.73 91.6802C141.687 91.8097 141.687 91.9392 141.644 92.1118C141.644 92.1118 141.558 92.9318 141.515 94.0108C141.342 93.7087 141.083 93.4497 140.651 93.7519C139.918 94.3129 140.479 96.7299 140.953 96.773C141.126 96.773 141.299 96.6867 141.428 96.6004C141.428 97.2478 141.471 97.852 141.558 98.2836C141.644 98.5426 141.903 98.8015 142.205 99.1037C141.86 100.01 141.299 101.046 140.565 101.607C139.011 102.772 134.997 103.635 133.53 104.801C132.235 105.837 131.027 108.944 130.811 109.548H154.29C154.333 108.858 154.678 105.793 153.901 104.758Z" fill="white" fill-opacity="0.64"/>
<g opacity="0.46">
<path opacity="0.46" d="M157.822 159H69.6088C68.6629 159 68.0049 158.137 68.2517 157.232L76.4767 125.565C76.6412 124.949 77.217 124.496 77.8339 124.496H166.047C166.993 124.496 167.651 125.36 167.405 126.265L159.18 157.931C159.056 158.589 158.48 159 157.822 159Z" fill="#BFD9FF"/>
<g opacity="0.46">
<path opacity="0.46" d="M112.42 132.022H81.6996C81.2883 132.022 81.0004 131.693 81.0004 131.323C81.0004 130.953 81.3294 130.624 81.6996 130.624H112.42C112.831 130.624 113.119 130.953 113.119 131.323C113.119 131.693 112.79 132.022 112.42 132.022Z" fill="#A9C2FF"/>
<path opacity="0.46" d="M110.035 146.169H79.3142C78.903 146.169 78.6151 145.84 78.6151 145.47C78.6151 145.1 78.9441 144.771 79.3142 144.771H110.035C110.446 144.771 110.734 145.1 110.734 145.47C110.734 145.84 110.446 146.169 110.035 146.169Z" fill="#A9C2FF"/>
<path opacity="0.46" d="M122.948 140.823H92.2685C91.8573 140.823 91.5694 140.494 91.5694 140.124C91.5694 139.754 91.8984 139.425 92.2685 139.425H122.989C123.4 139.425 123.688 139.754 123.688 140.124C123.688 140.494 123.359 140.823 122.948 140.823Z" fill="#A9C2FF"/>
<path opacity="0.46" d="M90.1298 136.752H80.9178C80.5065 136.752 80.2187 136.423 80.2187 136.052C80.2187 135.682 80.5477 135.353 80.9178 135.353H90.1298C90.5411 135.353 90.829 135.682 90.829 136.052C90.829 136.423 90.5 136.752 90.1298 136.752Z" fill="#A9C2FF"/>
<path opacity="0.46" d="M88.8549 140.823H79.6429C79.2316 140.823 78.9438 140.494 78.9438 140.124C78.9438 139.754 79.2728 139.425 79.6429 139.425H88.8549C89.2662 139.425 89.5541 139.754 89.5541 140.124C89.5541 140.494 89.2662 140.823 88.8549 140.823Z" fill="#A9C2FF"/>
<path opacity="0.46" d="M128.212 132.022H117.272C116.861 132.022 116.573 131.693 116.573 131.323C116.573 130.953 116.902 130.624 117.272 130.624H128.212C128.623 130.624 128.911 130.953 128.911 131.323C128.911 131.693 128.623 132.022 128.212 132.022Z" fill="#A9C2FF"/>
<path opacity="0.46" d="M122.66 152.338H106.333C106.21 152.338 106.128 152.297 106.045 152.215C105.963 152.132 105.963 152.009 105.963 151.886L106.703 149.089C106.745 148.925 106.909 148.801 107.074 148.801H123.4C123.524 148.801 123.606 148.842 123.688 148.925C123.77 149.007 123.77 149.13 123.77 149.254L123.03 152.05C122.948 152.256 122.825 152.338 122.66 152.338ZM106.457 151.886H122.578L123.236 149.295H107.115L106.457 151.886Z" fill="#84AEE5"/>
<path opacity="0.46" d="M102.344 152.338H86.0175C85.8942 152.338 85.8119 152.297 85.7297 152.215C85.6474 152.132 85.6474 152.009 85.6474 151.886L86.3877 149.089C86.4288 148.925 86.5933 148.801 86.7578 148.801H103.085C103.208 148.801 103.29 148.842 103.372 148.925C103.455 149.007 103.455 149.13 103.455 149.254L102.714 152.05C102.632 152.256 102.509 152.338 102.344 152.338ZM86.1409 151.886H102.262L102.92 149.295H86.7989L86.1409 151.886Z" fill="#84AEE5"/>
</g>
<path opacity="0.46" d="M151.366 148.061C150.543 146.951 147.13 146.128 146.184 145.018C145.69 144.442 145.69 143.373 145.814 142.509C146.143 142.303 146.431 142.098 146.595 141.892C146.883 141.481 147.212 140.905 147.5 140.288C147.582 140.37 147.706 140.453 147.911 140.453C148.364 140.453 150.05 138.109 149.597 137.574C149.351 137.286 148.939 137.533 148.651 137.821C149.104 136.793 149.433 136.011 149.433 136.011C149.474 135.888 149.515 135.764 149.556 135.6C150.214 132.886 148.569 130.706 145.896 130.706C143.182 130.706 140.467 132.886 139.768 135.6C139.727 135.723 139.727 135.847 139.686 136.011C139.686 136.011 139.604 136.793 139.563 137.821C139.398 137.533 139.151 137.286 138.74 137.574C138.041 138.109 138.576 140.412 139.028 140.453C139.193 140.453 139.357 140.37 139.48 140.288C139.48 140.905 139.522 141.481 139.604 141.892C139.686 142.139 139.933 142.386 140.221 142.673C139.892 143.537 139.357 144.524 138.658 145.059C137.177 146.169 133.353 146.992 131.955 148.102C130.721 149.089 129.569 152.05 129.364 152.626H151.736C151.777 151.968 152.106 149.048 151.366 148.061Z" fill="#8DBCF8"/>
</g>
<g opacity="0.46">
<path opacity="0.46" d="M157.822 159H69.6088C68.6629 159 68.0049 158.137 68.2517 157.232L76.4767 125.565C76.6412 124.949 77.217 124.496 77.8339 124.496H166.047C166.993 124.496 167.651 125.36 167.405 126.265L159.18 157.931C159.056 158.589 158.48 159 157.822 159Z" fill="#BFD9FF"/>
<g opacity="0.46">
<path opacity="0.46" d="M112.42 132.022H81.6996C81.2883 132.022 81.0004 131.693 81.0004 131.323C81.0004 130.953 81.3294 130.624 81.6996 130.624H112.42C112.831 130.624 113.119 130.953 113.119 131.323C113.119 131.693 112.79 132.022 112.42 132.022Z" fill="#A9C2FF"/>
<path opacity="0.46" d="M110.035 146.169H79.3142C78.903 146.169 78.6151 145.84 78.6151 145.47C78.6151 145.1 78.9441 144.771 79.3142 144.771H110.035C110.446 144.771 110.734 145.1 110.734 145.47C110.734 145.84 110.446 146.169 110.035 146.169Z" fill="#A9C2FF"/>
<path opacity="0.46" d="M122.948 140.823H92.2685C91.8573 140.823 91.5694 140.494 91.5694 140.124C91.5694 139.754 91.8984 139.425 92.2685 139.425H122.989C123.4 139.425 123.688 139.754 123.688 140.124C123.688 140.494 123.359 140.823 122.948 140.823Z" fill="#A9C2FF"/>
<path opacity="0.46" d="M90.1298 136.752H80.9178C80.5065 136.752 80.2187 136.423 80.2187 136.052C80.2187 135.682 80.5477 135.353 80.9178 135.353H90.1298C90.5411 135.353 90.829 135.682 90.829 136.052C90.829 136.423 90.5 136.752 90.1298 136.752Z" fill="#A9C2FF"/>
<path opacity="0.46" d="M88.8549 140.823H79.6429C79.2316 140.823 78.9438 140.494 78.9438 140.124C78.9438 139.754 79.2728 139.425 79.6429 139.425H88.8549C89.2662 139.425 89.5541 139.754 89.5541 140.124C89.5541 140.494 89.2662 140.823 88.8549 140.823Z" fill="#A9C2FF"/>
<path opacity="0.46" d="M128.212 132.022H117.272C116.861 132.022 116.573 131.693 116.573 131.323C116.573 130.953 116.902 130.624 117.272 130.624H128.212C128.623 130.624 128.911 130.953 128.911 131.323C128.911 131.693 128.623 132.022 128.212 132.022Z" fill="#A9C2FF"/>
<path opacity="0.46" d="M122.66 152.338H106.333C106.21 152.338 106.128 152.297 106.045 152.215C105.963 152.132 105.963 152.009 105.963 151.886L106.703 149.089C106.745 148.925 106.909 148.801 107.074 148.801H123.4C123.524 148.801 123.606 148.842 123.688 148.925C123.77 149.007 123.77 149.13 123.77 149.254L123.03 152.05C122.948 152.256 122.825 152.338 122.66 152.338ZM106.457 151.886H122.578L123.236 149.295H107.115L106.457 151.886Z" fill="#84AEE5"/>
<path opacity="0.46" d="M102.344 152.338H86.0175C85.8942 152.338 85.8119 152.297 85.7297 152.215C85.6474 152.132 85.6474 152.009 85.6474 151.886L86.3877 149.089C86.4288 148.925 86.5933 148.801 86.7578 148.801H103.085C103.208 148.801 103.29 148.842 103.372 148.925C103.455 149.007 103.455 149.13 103.455 149.254L102.714 152.05C102.632 152.256 102.509 152.338 102.344 152.338ZM86.1409 151.886H102.262L102.92 149.295H86.7989L86.1409 151.886Z" fill="#84AEE5"/>
</g>
<path opacity="0.46" d="M151.366 148.061C150.543 146.951 147.13 146.128 146.184 145.018C145.69 144.442 145.69 143.373 145.814 142.509C146.143 142.303 146.431 142.098 146.595 141.892C146.883 141.481 147.212 140.905 147.5 140.288C147.582 140.37 147.706 140.453 147.911 140.453C148.364 140.453 150.05 138.109 149.597 137.574C149.351 137.286 148.939 137.533 148.651 137.821C149.104 136.793 149.433 136.011 149.433 136.011C149.474 135.888 149.515 135.764 149.556 135.6C150.214 132.886 148.569 130.706 145.896 130.706C143.182 130.706 140.467 132.886 139.768 135.6C139.727 135.723 139.727 135.847 139.686 136.011C139.686 136.011 139.604 136.793 139.563 137.821C139.398 137.533 139.151 137.286 138.74 137.574C138.041 138.109 138.576 140.412 139.028 140.453C139.193 140.453 139.357 140.37 139.48 140.288C139.48 140.905 139.522 141.481 139.604 141.892C139.686 142.139 139.933 142.386 140.221 142.673C139.892 143.537 139.357 144.524 138.658 145.059C137.177 146.169 133.353 146.992 131.955 148.102C130.721 149.089 129.569 152.05 129.364 152.626H151.736C151.777 151.968 152.106 149.048 151.366 148.061Z" fill="#8DBCF8"/>
</g>
<path d="M56.9153 19.6719H55.1214C54.6614 19.6719 54.3855 19.3039 54.5235 18.8439L54.9834 17.05C55.0754 16.59 55.5354 16.222 55.9954 16.222H57.7893C58.2493 16.222 58.5253 16.59 58.3873 17.05L57.9273 18.8439C57.8353 19.3039 57.3753 19.6719 56.9153 19.6719Z" fill="#BFD9FF"/>
<path d="M55.5817 24.9617H53.7878C53.3278 24.9617 53.0518 24.5937 53.1898 24.1337L53.6498 22.3398C53.7418 21.8798 54.2018 21.5118 54.6617 21.5118H56.4557C56.9156 21.5118 57.1916 21.8798 57.0536 22.3398L56.5937 24.1337C56.5017 24.5937 56.0417 24.9617 55.5817 24.9617Z" fill="#EDF4FF"/>
<path d="M61.3312 24.9617H59.5373C59.0773 24.9617 58.8013 24.5937 58.9393 24.1337L59.3993 22.3398C59.4913 21.8798 59.9513 21.5118 60.4113 21.5118H62.2052C62.6652 21.5118 62.9411 21.8798 62.8031 22.3398L62.3432 24.1337C62.2512 24.5937 61.7912 24.9617 61.3312 24.9617Z" fill="#BFD9FF"/>
<path d="M67.081 24.9617H65.287C64.8271 24.9617 64.5511 24.5937 64.6891 24.1337L65.1491 22.3398C65.241 21.8798 65.701 21.5118 66.161 21.5118H67.9549C68.4149 21.5118 68.6909 21.8798 68.5529 22.3398L68.0929 24.1337C68.0009 24.5937 67.5409 24.9617 67.081 24.9617Z" fill="#EDF4FF"/>
<path d="M54.2479 30.3893H52.454C51.994 30.3893 51.718 30.0213 51.856 29.5613L52.316 27.7674C52.408 27.3074 52.8679 26.9395 53.3279 26.9395H55.1218C55.5818 26.9395 55.8578 27.3074 55.7198 27.7674L55.2598 29.5613C55.1678 30.0213 54.7079 30.3893 54.2479 30.3893Z" fill="#EDF4FF"/>
<path d="M52.7757 36.1392H50.9818C50.5218 36.1392 50.2458 35.7712 50.3838 35.3112L50.8438 33.5173C50.9358 33.0573 51.3957 32.6893 51.8557 32.6893H53.6496C54.1096 32.6893 54.3856 33.0573 54.2476 33.5173L53.7876 35.3112C53.6956 35.7712 53.2357 36.1392 52.7757 36.1392Z" fill="#EDF4FF"/>
<path d="M59.9974 30.3893H58.2035C57.7435 30.3893 57.4675 30.0213 57.6055 29.5613L58.0655 27.7674C58.1575 27.3074 58.6175 26.9395 59.0774 26.9395H60.8714C61.3313 26.9395 61.6073 27.3074 61.4693 27.7674L61.0094 29.5613C60.9174 30.0213 60.4574 30.3893 59.9974 30.3893Z" fill="#EDF4FF"/>
<path d="M57.4675 40.4629H55.6736C55.2136 40.4629 54.9376 40.0949 55.0756 39.6349L55.5356 37.841C55.6276 37.381 56.0875 37.0131 56.5475 37.0131H58.3414C58.8014 37.0131 59.0774 37.381 58.9394 37.841L58.4794 39.6349C58.3874 40.0949 57.9275 40.4629 57.4675 40.4629Z" fill="#BFD9FF"/>
<path d="M85.8945 9.13843C85.8485 9.13843 85.8485 9.13843 85.8945 9.13843C85.8485 9.13843 85.8025 9.13843 85.8025 9.13843C85.6185 9.13843 85.4345 9.13843 85.2506 9.13843C79.9148 9.13843 74.487 13.4162 73.0611 18.752L73.0151 19.028C73.0151 19.074 73.0151 19.074 73.0151 19.12L72.9691 19.304C71.7732 24.6857 75.269 29.0095 80.8348 28.7795C85.8945 28.5956 91.0003 24.5477 92.5182 19.534C94.0361 14.0142 91.0463 9.50641 85.8945 9.13843ZM89.5744 19.304C88.5164 22.8458 84.8366 25.7437 81.2487 25.8357C77.3849 25.9737 74.993 22.9838 75.775 19.212L75.867 18.752C76.8789 15.0262 80.6968 12.0363 84.4686 12.0363C84.6526 12.0363 84.8366 12.0363 85.0206 12.0823C88.6544 12.3583 90.7243 15.4861 89.5744 19.304Z" fill="#EBEDFC"/>
<path d="M85.3423 10.7935C85.1583 11.4375 85.4803 12.0354 86.0782 12.2194C89.0221 13.0014 90.586 15.8993 89.5281 19.3031C88.4701 22.8449 84.7903 25.7428 81.2025 25.8348C77.6606 25.9268 75.3607 23.4429 75.5907 20.1771C75.6367 19.4871 75.1767 19.0271 74.4408 19.0271C73.5668 19.0271 72.6469 19.8551 72.6009 20.729C72.2789 25.4208 75.5907 28.9627 80.6505 28.7787C85.7103 28.5947 90.816 24.5469 92.334 19.5331C93.8059 14.7033 91.598 10.5635 87.4122 9.45955C86.6302 9.18357 85.5723 9.87354 85.3423 10.7935Z" fill="#A5C5FF"/>
<path d="M110.273 8.17236C110.273 8.17236 110.227 8.17236 110.273 8.17236C110.227 8.17236 110.181 8.17236 110.135 8.17236C109.951 8.17236 109.767 8.17236 109.583 8.17236C104.155 8.17236 98.6813 12.5422 97.3474 17.9699C96.0135 23.3977 99.2793 27.7675 104.707 27.7675C104.891 27.7675 105.075 27.7675 105.259 27.7675C105.305 27.7675 105.351 27.7675 105.351 27.7675C105.351 27.7675 105.351 27.7675 105.397 27.7675C110.549 27.3995 115.609 23.2137 116.943 18.0619C116.943 18.0159 116.943 18.0159 116.989 17.9699C118.23 12.7262 115.287 8.49435 110.273 8.17236ZM105.903 24.8236C105.765 24.8236 105.627 24.8236 105.535 24.8236C105.489 24.8236 105.443 24.8236 105.397 24.8236C101.579 24.8236 99.2793 21.7418 100.199 17.9239C101.119 14.1061 105.029 11.0242 108.847 11.0242C108.893 11.0242 108.939 11.0242 108.985 11.0242C109.077 11.0242 109.215 11.0242 109.307 11.0242C109.307 11.0242 109.307 11.0242 109.353 11.0242C112.895 11.2542 114.965 14.2441 114.045 17.9239C114.045 17.9699 114.045 17.9699 113.999 18.0159C113.079 21.6498 109.537 24.5936 105.903 24.8236Z" fill="white"/>
<path d="M113.631 19.2118C112.435 21.9717 109.675 24.1796 106.777 24.6856C106.041 24.8236 105.397 25.4215 105.213 26.1115C104.983 27.0315 105.627 27.7214 106.593 27.5374C110.733 26.8015 114.597 23.6736 116.345 19.7178C116.713 18.8438 116.253 18.0159 115.333 18.0159C114.643 18.0159 113.907 18.5218 113.631 19.2118Z" fill="#BFD9FF"/>
<path d="M84.2381 42.6706H65.9769C65.8849 42.6706 65.8389 42.5786 65.8389 42.4866L66.6669 39.3587C66.6669 39.3127 66.7589 39.2667 66.8049 39.2667H85.066C85.158 39.2667 85.204 39.3587 85.204 39.4507L84.3761 42.5786C84.3761 42.6246 84.3301 42.6706 84.2381 42.6706Z" fill="#EDF4FF"/>
<path d="M169.031 57.2568C172.839 53.8938 173.8 48.7594 171.177 45.7887C168.554 42.8181 163.34 43.1361 159.531 46.4991C155.723 49.862 154.762 54.9965 157.385 57.9671C160.008 60.9378 165.222 60.6198 169.031 57.2568Z" fill="#F25B24"/>
<path d="M176.28 60.5639C175.958 61.8058 174.716 62.7718 173.52 62.7718C172.278 62.7718 171.542 61.7598 171.864 60.5639C172.186 59.3219 173.428 58.356 174.624 58.356C175.82 58.356 176.556 59.3679 176.28 60.5639Z" fill="#F25B24"/>
<path d="M162.204 56.0101C161.928 56.0101 161.698 55.9182 161.56 55.7342L159.445 52.9283C159.169 52.5603 159.307 51.9163 159.813 51.5024C160.319 51.1344 160.917 51.1344 161.239 51.5024L162.802 53.5723L168.414 49.1105C168.92 48.7425 169.518 48.7425 169.84 49.1105C170.116 49.4784 169.978 50.1224 169.472 50.5364L162.94 55.6882C162.71 55.8722 162.434 56.0101 162.204 56.0101Z" fill="white"/>
<path d="M25.665 180.418C25.665 180.418 26.4559 178.791 29.1811 179.308C31.9063 179.825 32.2141 180.416 32.4976 181.832C32.7798 183.296 33.6623 184.875 34.3035 185.185C34.9432 185.543 37.2152 187.26 39.1079 187.655C41.0006 188.051 41.197 189.27 40.7173 189.79C40.284 190.311 33.0766 190.584 31.5059 190.295C31.5059 190.295 26.1256 190.04 24.839 189.566C23.6452 189.094 25.5565 180.948 25.665 180.418Z" fill="#2D2737"/>
<path d="M23.7445 141.439C23.7445 141.439 23.0894 136.858 27.7293 135.442C32.4156 134.026 33.2318 136.283 34.5001 140.542C35.7698 144.753 32.1229 180.365 32.1229 180.365C32.1229 180.365 26.7576 181.178 25.4374 180.266C25.4374 180.266 22.0822 156.921 22.5472 150.577C23.0136 144.184 23.7445 141.439 23.7445 141.439Z" fill="#2D1686"/>
<path d="M24.9218 178.843C24.9218 178.843 30.9704 178.487 32.8831 178.203L32.7062 181.061C32.7062 181.061 27.9007 181.794 24.9898 181.271L24.9218 178.843Z" fill="#4E33B5"/>
<path d="M25.765 52.2766C25.765 52.2766 21.958 52.5192 19.6367 61.5906C17.3153 70.662 15.8296 81.7223 16.6653 84.5844C17.501 87.4465 26.6007 95.2081 29.9899 95.2081C33.3791 95.2081 33.6112 92.5401 32.9612 90.3571C32.3112 88.1256 25.765 82.1589 25.765 82.1589C25.765 82.1589 31.0577 64.4527 30.8256 59.7957C30.5934 55.1387 28.0864 52.2766 25.765 52.2766Z" fill="#4E33B5"/>
<path d="M73.4918 49.5599L72.8418 49.6084L74.2811 46.6978C74.2811 46.6978 77.9024 46.4553 78.4595 48.0561L76.7881 51.8884L73.4918 49.5599Z" fill="#FFAE73"/>
<path d="M75.5343 41.2648C75.5343 41.2648 75.395 38.2572 76.4164 37.8691C77.4378 37.481 78.5521 38.2086 78.5521 38.2086C78.5521 38.2086 80.2234 38.0146 80.7341 38.7908C81.2448 39.5669 81.1984 40.6342 81.1984 40.6342C81.1984 40.6342 82.127 40.8282 82.3591 41.7984C82.5912 42.7201 82.1734 44.515 82.1734 44.515C82.1734 44.515 81.1056 45.8733 79.852 45.5337C78.6449 45.1941 75.5343 41.2648 75.5343 41.2648Z" fill="#FFAE73"/>
<path d="M73.6311 43.6417C73.6311 43.6417 73.2597 39.7124 73.6311 39.2273C74.049 38.6937 78.181 32.7269 78.181 32.7269C78.181 32.7269 79.0167 33.7456 78.5524 34.9099C78.0417 36.0741 76.0918 39.6154 76.0918 39.6154V42.623C76.0918 42.623 74.8382 43.5447 73.6311 43.6417Z" fill="#FFAE73"/>
<path d="M73.9557 46.7949C73.9557 46.7949 72.9807 40.4886 73.6307 39.6154C74.3271 38.7422 77.6234 39.2758 78.2269 39.5184C78.8769 39.7609 80.5947 42.1379 80.8269 43.0596C81.059 43.9813 79.434 47.3285 78.4127 48.0562C77.4841 48.7838 74.5128 48.0077 73.9557 46.7949Z" fill="#FFAE73"/>
<path d="M71.6351 50.9668L72.8886 48.5413C72.8886 48.5413 75.8599 48.0077 77.3456 50.4332C77.7634 51.3064 77.5777 51.3064 77.5777 51.3064L76.6028 53.2953L71.6351 50.9668Z" fill="#DEE0E8"/>
<path d="M40.6481 26.7805C40.6481 26.7805 43.2359 27.4995 44.7422 31.898C46.2098 36.2964 45.2443 45.6009 44.2401 46.7005C43.2359 47.8001 40.2619 47.3772 36.1293 45.8969C31.7262 44.2475 30.2586 39.2569 29.4861 36.0004C27.9798 29.6987 32.9622 23.2279 40.6481 26.7805Z" fill="#FFAE73"/>
<path d="M31.3011 50.9296L33.4254 42.6402C33.4254 42.6402 37.6353 41.2868 40.3002 44.3742L41.1886 45.7276V51.1411C41.1499 51.1411 36.7469 52.1138 31.3011 50.9296Z" fill="#FFAE73"/>
<path d="M22.5 103.358C22.5 103.358 20.5965 114.952 22.5 128.243C24.1091 152.727 28.1114 145.242 31.5935 145.242C35.0755 145.242 36.1496 132.221 36.7531 127.564C37.4031 122.907 39.9102 106.996 35.1746 103.358C30.439 99.7194 25.0535 99.3799 22.5 103.358Z" fill="#2D1686"/>
<path d="M37.6351 117.92C37.6351 117.92 33.2998 108.134 39.9297 103.398C46.5597 98.6625 51.6279 99.2817 53.2964 106.879C54.9649 114.476 55.6003 140.714 53.4345 146.027C43.9473 155.973 43.6362 142.445 37.6351 117.92Z" fill="#2D1686"/>
<path d="M45.7464 27.1612C45.7464 27.1612 46.9824 28.9375 46.2485 31.0099C45.5147 33.0822 42.7338 33.8858 42.7338 33.8858C42.7338 33.8858 43.6222 35.2392 42.7338 37.1847L42.1159 38.2843C42.1159 38.2843 43.0042 40.4835 42.7338 41.0333C42.5021 41.5831 41.6138 41.4562 41.6138 41.4562C41.6138 41.4562 40.6096 38.3689 40.2234 38.6649C39.8371 38.9187 38.8329 40.3143 38.8329 41.5408C38.8329 42.7673 39.2192 43.7401 38.9488 44.5436C38.7171 45.3472 34.8162 45.3472 33.194 45.0934C31.5718 44.8397 29.0613 39.3416 28.4434 36.8886C28.4434 36.8886 27.5551 33.4629 28.8296 30.587C28.8296 30.587 28.5979 28.134 30.7221 25.6387C32.8464 23.1857 39.6054 23.9893 40.7255 24.962C40.7255 24.962 40.6096 23.6086 41.8455 23.8624C43.1201 24.1584 44.974 25.3849 45.7464 27.1612Z" fill="#232729"/>
<path d="M41.9997 39.6377C41.9997 39.6377 41.6135 37.8614 40.2617 38.665C38.8713 39.4685 40.4934 43.7401 41.6521 43.4441C42.7336 43.1903 42.2315 40.3144 41.9997 39.6377Z" fill="#F99352"/>
<path d="M28.8753 51.9855C28.8753 51.9855 29.5717 49.366 30.2217 49.1719C30.8717 48.9294 38.6714 48.0562 42.9427 50.7243C44.8462 52.2766 44.6141 53.3923 44.6141 53.3923C44.6141 53.3923 31.9859 50.8698 28.8753 51.9855Z" fill="white"/>
<path d="M27.2509 51.4033C27.2509 51.4033 40.3897 50.5301 49.6751 54.702C53.9 56.9335 63.6032 66.9266 63.6032 66.9266L71.2172 50.3361C71.2172 50.3361 75.4885 48.7353 77.2063 52.9556C77.2063 52.9556 72.3779 72.5538 68.3852 78.7146C65.8317 80.946 51.2882 71.4094 51.2882 71.4094C51.2882 71.4094 50.6713 78.4764 50.6713 88.3408C50.6713 98.2051 55.6035 110.877 55.6035 110.877C55.6035 110.877 44.6255 112.543 34.8424 112.772C25.853 111.659 19.835 110.877 19.835 110.877C19.835 110.877 24.1342 83.3016 23.7163 80.1969C23.2985 77.0923 20.4725 60.9113 20.8904 58.6798C21.3546 56.4969 23.2581 52.2765 27.2509 51.4033Z" fill="#4E33B5"/>
<path d="M42.7052 181.035C42.7052 181.035 43.4285 179.377 46.1726 179.781C48.9168 180.186 49.2487 180.764 49.5903 182.167C49.9325 183.618 50.8793 185.159 51.5327 185.443C52.1866 185.775 54.5273 187.396 56.4347 187.713C58.3421 188.03 58.5886 189.24 58.1306 189.779C57.7191 190.318 50.5292 190.888 48.9479 190.664C48.9479 190.664 43.5616 190.631 42.2566 190.21C40.998 189.788 42.6192 181.619 42.7052 181.035Z" fill="#3E3343"/>
<path d="M43.5476 142.215C43.5476 142.215 43.1675 137.562 47.9377 136.535C52.7073 135.46 53.3383 137.781 54.3643 142.087C55.3903 146.392 49.4462 181.635 49.4462 181.635C49.4462 181.635 44.0651 182.038 42.7532 181.035C42.7532 181.035 40.8959 157.479 41.7498 151.162C42.6042 144.894 43.5476 142.215 43.5476 142.215Z" fill="#2D1686"/>
<path d="M42.2944 181.622C42.2944 181.622 46.4405 182.786 49.9142 182.066L50.2094 179.54L42.1717 179.101L42.2944 181.622Z" fill="#4E33B5"/>
<path d="M75.9991 39.0334C75.9527 39.0334 75.8598 38.9849 75.8134 38.9364C75.7205 38.8393 75.7205 38.6938 75.8134 38.5968L77.1133 37.384H77.2062C77.2526 37.384 78.1812 37.384 78.7383 38.0632C78.8311 38.1602 78.8311 38.3057 78.6919 38.4027C78.599 38.4998 78.4597 38.4513 78.3669 38.3542C78.0419 37.9662 77.5312 37.8691 77.299 37.8691L76.1384 38.9849C76.0919 39.0334 76.0455 39.0334 75.9991 39.0334Z" fill="#F99352"/>
<path d="M81.1526 40.828C81.1061 40.828 81.1061 40.828 81.0597 40.828C80.9204 40.7795 80.874 40.634 80.9204 40.4884C80.9204 40.4884 81.0597 40.0518 80.874 39.2757C80.7347 38.6936 79.7597 38.3055 79.2955 38.16C78.5991 38.548 77.8098 38.9846 77.6705 39.1302C77.6241 39.1787 77.5777 39.2272 77.4848 39.2272C77.3455 39.2272 77.2527 39.1302 77.2527 38.9846C77.2527 38.7906 77.2527 38.7421 79.1562 37.6749L79.249 37.6263H79.3419C79.5276 37.6749 81.1061 38.1114 81.3847 39.0816C81.6168 40.0033 81.4311 40.537 81.4311 40.5855C81.3383 40.7795 81.2454 40.828 81.1526 40.828Z" fill="#F99352"/>
<path d="M80.1777 45.8732H80.1312C79.9919 45.8732 79.8991 45.7761 79.8991 45.6306C79.8991 45.4851 79.9919 45.3881 80.1312 45.3881H80.1777C81.1991 45.3881 81.8955 44.5634 82.0347 44.4178C82.0812 44.2238 82.3597 43.3021 82.3597 42.3804C82.3597 41.6043 81.8955 41.1192 81.7562 41.0221C80.7812 40.9736 79.7598 40.9251 79.6205 40.9251C79.4813 40.9736 79.3884 40.8766 79.342 40.7796C79.2955 40.6341 79.3884 40.4885 79.5277 40.44C79.5741 40.44 79.667 40.3915 81.849 40.537H81.8955L81.9419 40.5855C81.9883 40.6341 82.824 41.2162 82.824 42.4289C82.7776 43.5447 82.4526 44.6119 82.4526 44.6604L82.4062 44.7089C82.3597 44.6604 81.5705 45.8732 80.1777 45.8732Z" fill="#F99352"/>
<path d="M78.4598 48.2987C78.367 48.2987 78.3206 48.2502 78.2741 48.2017C78.1813 48.1047 78.2277 47.9106 78.367 47.8621C79.4812 47.1345 79.9919 45.6792 80.3169 44.709C80.4098 44.4664 80.4562 44.2239 80.5491 44.0783C80.8276 43.4477 80.6419 43.0596 80.6419 43.0596C80.5955 42.9626 80.5955 42.7686 80.7348 42.7201C80.8276 42.6715 80.9669 42.6715 81.0598 42.8171C81.1062 42.8656 81.3848 43.3992 81.0133 44.2724C80.9669 44.4179 80.8741 44.6119 80.7812 44.8545C80.4562 45.8732 79.8991 47.4255 78.6456 48.2502C78.5527 48.2987 78.5063 48.2987 78.4598 48.2987Z" fill="#F99352"/>
</svg>
