<svg width="193" height="193" viewBox="0 0 193 193" fill="none" xmlns="http://www.w3.org/2000/svg">
<path d="M112.214 125.539C115.113 123.698 118.407 122.58 121.833 122.251C123.414 122.119 125.127 122.119 126.379 123.106C126.642 123.303 126.906 123.632 126.84 123.961C126.774 124.224 126.577 124.355 126.379 124.553C122.492 127.447 116.562 127.841 112.214 125.539Z" fill="#C8DBF4"/>
<path d="M112.478 125.276C114.652 123.566 116.826 121.856 118.671 119.817C120.516 117.778 122.031 115.345 122.558 112.648C122.755 111.859 122.755 110.873 122.228 110.215C117.287 114.095 113.4 119.094 112.478 125.276Z" fill="#C8DBF4"/>
<path d="M112.28 125.539C112.676 122.842 112.807 120.08 112.149 117.384C111.556 114.753 110.106 112.188 107.8 110.675C106.944 112.648 107.339 114.95 107.932 117.055C108.855 120.277 110.304 123.369 112.214 126.131" fill="#C8DBF4"/>
<path d="M107.405 134.221C110.37 134.55 112.939 136.128 115.113 138.101C117.287 140.074 118.869 142.771 119.527 145.665C116.629 145.467 114.191 143.428 112.412 141.192C110.633 138.89 109.382 136.391 107.405 134.221Z" fill="#C8DBF4"/>
<path d="M106.351 135.602C108.723 129.748 107.866 122.711 104.177 117.647C102.464 123.632 103.123 130.34 106.351 135.602Z" fill="#C8DBF4"/>
<path d="M99.9602 143.231C102.661 143.034 105.363 143.692 107.668 145.007C109.974 146.322 111.885 148.361 113.071 150.729C113.203 151.058 113.4 151.452 113.137 151.781C112.939 152.044 112.61 152.044 112.28 152.044C109.711 151.847 107.405 150.334 105.494 148.558C103.65 146.783 102.003 144.744 99.9602 143.231Z" fill="#C8DBF4"/>
<path d="M100.158 142.771C101.542 138.364 101.608 133.563 100.422 129.091C99.9606 127.315 99.1041 125.473 97.5229 124.684C97.3912 124.618 97.1935 124.553 97.0617 124.618C96.93 124.684 96.8641 124.816 96.7982 124.947C96.2053 126.131 96.0735 127.512 96.1394 128.893C96.2053 130.209 96.4688 131.524 96.7323 132.84C97.2594 135.273 97.5229 137.838 98.8406 139.943C99.17 140.469 99.4335 140.995 99.697 141.521C99.9606 142.047 99.9606 142.245 100.158 142.639" fill="#C8DBF4"/>
<path d="M83.2264 145.336C84.4781 140.535 83.1605 134.747 80.1299 130.866C79.9323 130.603 79.6028 130.275 79.2734 130.275C78.7464 130.34 78.5487 131.064 78.6146 131.59C78.7464 136.523 80.3934 141.324 83.2264 145.336Z" fill="#C8DBF4"/>
<path d="M81.6451 146.388C75.8474 147.901 69.1933 146.454 64.3181 142.902C67.151 141.455 70.5768 141.061 73.6733 141.784C76.8356 142.442 79.7345 143.823 81.6451 146.388Z" fill="#C8DBF4"/>
<path d="M80.3932 143.165C77.165 137.904 70.9062 134.418 64.7133 134.089C65.438 136.588 67.4803 138.561 69.8521 139.745C72.2238 140.929 74.7932 141.455 77.3626 141.916C78.3509 142.179 79.7344 142.376 80.3932 143.165Z" fill="#C8DBF4"/>
<path d="M82.8968 127.776C82.0403 124.75 81.118 121.725 80.9204 118.568C80.6568 115.411 81.118 112.188 82.7651 109.492C85.7956 115.345 86.125 122.251 83.0286 128.039" fill="#C8DBF4"/>
<path d="M72.6193 122.58C69.0616 116.134 61.8146 111.004 54.5017 110.281C57.3346 117.318 65.0428 122.777 72.6193 122.58Z" fill="#C8DBF4"/>
<path d="M74.8594 123.895C69.5889 124.684 65.043 128.104 60.1018 130.143C59.0477 130.603 57.9277 130.932 56.7419 130.801C55.6219 130.669 54.5018 129.88 54.2383 128.762C54.0407 127.841 54.436 126.855 55.0948 126.197C55.7536 125.539 56.6101 125.079 57.5324 124.75C62.9347 122.514 68.7324 122.448 74.3983 123.829" fill="#C8DBF4"/>
<path d="M77.9558 127.578C76.7699 127.907 76.3746 128.564 75.3864 129.354C72.1582 132.116 68.2711 134.089 64.1865 135.076C63.7912 135.207 63.1982 135.207 63.0006 134.812C62.8029 134.484 63.0664 134.089 63.2641 133.76C64.977 131.59 67.4147 130.143 70.0499 129.156C72.6193 128.17 74.8593 127.052 77.9558 127.315" fill="#C8DBF4"/>
<path d="M81.3816 105.151C77.0993 109.163 70.9723 111.202 65.1088 110.675C64.8452 110.675 64.5817 110.61 64.3841 110.412C63.9888 109.952 64.45 109.294 64.9111 108.9C69.7864 105.217 75.5181 103.638 81.3816 105.151Z" fill="#C8DBF4"/>
<path d="M77.2968 103.638C71.631 99.363 63.791 98.1134 57.0052 100.284C59.5746 102.783 63.1322 104.164 66.6898 104.493C70.2475 104.822 73.8051 104.559 77.2968 103.638Z" fill="#C8DBF4"/>
<path d="M78.9437 93.3781C79.4049 88.6427 79.0755 84.8938 79.4708 80.0927C79.4708 79.698 79.6025 79.2377 79.932 79.1061C80.459 78.9088 80.8543 79.5007 80.9861 80.0269C82.4355 84.4334 81.6449 89.4977 78.9437 93.2465" fill="#C8DBF4"/>
<path d="M79.2735 93.9042C76.0453 91.9312 73.6077 89.3004 71.3677 86.2092C69.7865 84.1046 68.4689 81.5396 68.8642 78.9089C71.0383 78.8431 73.1465 80.0927 74.5301 81.7369C75.9795 83.3812 76.77 85.4858 77.4288 87.5904C78.0877 89.695 78.5488 91.8654 79.2735 93.9042Z" fill="#C8DBF4"/>
<path d="M71.4992 91.7336C64.384 89.1028 57.7958 85.2224 52.064 80.2897C54.3699 79.3689 57.0711 79.8951 59.3769 80.8816C64.6475 82.9862 68.9957 86.6035 71.631 91.7336" fill="#C8DBF4"/>
<path d="M77.0991 96.4694C73.5415 96.864 69.8521 97.1271 66.2945 96.5351C62.8028 95.9432 59.5086 94.5621 56.2145 93.1809C55.951 93.0494 55.6216 92.9178 55.5557 92.6548C55.424 92.3917 55.5557 91.9971 55.8193 91.7998C56.0828 91.6025 56.3463 91.4709 56.6757 91.4051C60.2333 90.4186 64.0545 90.879 67.5462 92.0628C71.038 93.2467 73.9368 94.6278 77.0991 96.4694Z" fill="#C8DBF4"/>
<path d="M97.5884 105.348C100.026 100.415 99.8943 94.6276 97.786 89.5634C96.2707 91.7995 96.1389 94.6934 96.4025 97.3899C96.666 100.086 97.5225 102.849 97.5225 105.545" fill="#C8DBF4"/>
<path d="M107.339 100.415C113.466 100.284 119.593 102.915 123.744 107.387C120.713 107.847 117.551 107.058 114.784 105.743C112.017 104.362 109.513 102.52 107.076 100.613" fill="#C8DBF4"/>
<path d="M113.927 98.2449C116.892 97.9818 119.791 97.653 122.69 98.508C125.588 99.363 128.158 101.402 129.344 104.164C126.577 104.493 123.744 103.77 121.174 102.651C118.605 101.402 116.233 99.8233 113.927 98.2449Z" fill="#C8DBF4"/>
<path d="M104.177 98.3106C106.878 96.5348 109.645 94.759 112.741 94.0356C115.904 93.3121 119.527 93.8383 121.701 96.206C119.198 97.7187 116.101 97.8502 113.137 97.8502C110.172 97.8502 106.614 97.7844 103.847 98.771" fill="#C8DBF4"/>
<path d="M104.177 98.4423C108.789 93.9042 110.502 85.8145 108.657 79.698C105.099 85.1569 103.452 91.9311 104.177 98.4423Z" fill="#C8DBF4"/>
<path d="M91.5276 85.6827C90.6712 83.6439 90.0782 81.5392 89.2876 79.5004C88.4971 77.4615 87.5747 75.4227 86.0594 73.7785C84.61 72.1342 82.5676 70.9504 80.3935 70.8188C81.7771 77.0012 85.8618 82.5916 91.4617 85.6827" fill="#C8DBF4"/>
<path d="M93.8335 88.314C95.2829 86.3409 96.9299 83.6444 98.8405 82.1974C100.817 80.7505 103.32 79.8297 105.692 80.4217C103.32 84.7624 98.7746 87.7878 93.8335 88.314Z" fill="#C8DBF4"/>
<path d="M93.3721 85.8803C94.2945 83.5126 95.2827 81.0791 95.6121 78.5141C96.0074 75.9491 95.7439 73.2525 94.4921 71.0822C91.9886 75.8175 91.1321 80.9476 93.2403 85.946" fill="#C8DBF4"/>
<path d="M91.5276 71.0821C90.0782 66.3467 85.7959 62.8609 81.1183 61.2825C80.5253 61.0852 79.9323 60.8879 79.2735 61.0194C78.6806 61.0852 78.0218 61.5456 77.9559 62.1375C77.7582 62.9267 78.4829 63.6502 79.0759 64.1763C82.6994 67.2675 86.9159 69.6352 91.5276 71.0821Z" fill="#C8DBF4"/>
<path d="M91.4616 67.2017C91.2639 64.1763 91.0663 61.0852 90.0781 58.1913C89.0898 55.2975 87.1793 52.6009 84.4122 51.3513C83.951 54.4425 85.2687 57.4679 86.9157 60.0986C88.5628 62.7294 90.5393 65.2286 91.5275 68.1883" fill="#C8DBF4"/>
<path d="M91.5273 69.3062C92.7132 65.8862 92.8449 61.4796 94.8873 58.52C96.3367 56.4154 98.6426 54.9685 99.8943 52.7981C100.751 54.9027 100.487 57.2704 99.6308 59.3093C98.7743 61.3481 97.3249 63.1239 95.8096 64.7681C94.2944 66.3466 92.9767 67.5962 91.5273 69.3062Z" fill="#C8DBF4"/>
<path d="M91.5272 170.657C91.5931 170.657 91.7249 147.703 91.7249 119.357C91.7249 91.0101 91.659 68.0566 91.5931 68.0566C91.5272 68.0566 91.3955 91.0101 91.3955 119.357C91.3296 147.703 91.4614 170.657 91.5272 170.657Z" fill="#C8DBF4"/>
<path d="M71.4336 101.862C71.4336 101.862 71.763 101.994 72.29 102.191C72.883 102.388 73.7394 102.651 74.6618 102.98C76.6382 103.638 79.4053 104.624 82.4359 105.874C85.4006 107.124 88.1676 108.176 89.7488 109.557C90.5394 110.215 91.0006 110.938 91.1982 111.53C91.3959 112.056 91.4618 112.385 91.5276 112.385C91.5276 112.385 91.5276 112.319 91.5276 112.122C91.5276 111.991 91.4618 111.727 91.33 111.464C91.1324 110.872 90.6712 110.083 89.8806 109.36C89.09 108.636 87.97 107.979 86.7183 107.387C85.4665 106.795 84.0171 106.203 82.5018 105.545C79.4712 104.296 76.7042 103.375 74.7277 102.717C73.7395 102.388 72.883 102.191 72.29 101.994C71.763 101.928 71.4336 101.862 71.4336 101.862Z" fill="#C8DBF4"/>
<path d="M64.8453 85.7486C64.8453 85.7486 64.9112 85.8143 65.1088 86.0117C65.3065 86.209 65.57 86.4063 65.8335 86.7351C66.4924 87.327 67.4806 88.182 68.6006 89.2344C70.9723 91.339 74.2005 94.2328 77.7582 97.3898C81.3158 100.547 84.4123 103.638 86.5864 105.874C87.6405 106.992 88.4969 107.979 89.0899 108.636C89.3534 108.965 89.551 109.162 89.7487 109.426C89.8805 109.623 90.0122 109.689 90.0122 109.689C90.0122 109.689 89.9463 109.557 89.8146 109.426C89.6828 109.228 89.4852 108.965 89.2216 108.636C88.6946 107.979 87.8381 106.992 86.784 105.808C84.6758 103.506 81.5793 100.415 78.0217 97.1924C74.3982 94.0355 71.17 91.1417 68.7982 89.1028C67.6124 88.1163 66.69 87.2613 65.9653 86.6694C65.6359 86.4063 65.3724 86.209 65.1747 86.0117C64.9771 85.7486 64.8453 85.6828 64.8453 85.7486Z" fill="#C8DBF4"/>
<path d="M81.5792 100.547C81.6451 100.481 80.9204 98.7711 80.1957 96.6007C79.471 94.4303 79.0757 92.5887 79.0098 92.5887C78.944 92.5887 79.1416 94.4961 79.8663 96.6664C80.2616 97.7845 80.6569 98.7053 80.9863 99.4288C81.3157 100.152 81.5792 100.547 81.5792 100.547Z" fill="#C8DBF4"/>
<path d="M91.5272 114.424C91.5272 114.424 91.7249 114.227 92.0543 113.766C92.4496 113.306 92.9107 112.648 93.4378 111.991C94.6237 110.478 96.2707 108.373 98.1154 106.006C99.9601 103.704 101.673 101.599 102.859 100.086C103.452 99.363 103.913 98.771 104.308 98.3106C104.638 97.916 104.835 97.653 104.835 97.653C104.835 97.653 104.638 97.8503 104.242 98.2449C103.847 98.6395 103.32 99.2314 102.727 99.9549C101.475 101.402 99.7625 103.441 97.9178 105.808C96.0731 108.11 94.4919 110.281 93.306 111.859C92.7131 112.648 92.2519 113.306 91.9884 113.701C91.659 114.161 91.4613 114.424 91.5272 114.424Z" fill="#C8DBF4"/>
<path d="M95.8756 108.768C95.9415 108.834 97.1274 107.452 97.7203 105.348C98.1815 103.835 98.1815 102.52 98.1156 101.862H97.9838C98.0497 102.125 98.1156 102.257 98.1156 102.257C98.1156 102.257 98.1156 102.125 98.1156 101.862H97.9838C97.918 102.454 97.8521 103.769 97.3909 105.216C96.8638 107.321 95.8097 108.768 95.8756 108.768Z" fill="#C8DBF4"/>
<path d="M101.607 101.665C101.673 101.731 102.003 101.204 102.925 100.941C103.782 100.612 105.099 100.547 106.483 100.678C107.932 100.81 109.184 101.007 110.106 101.27C111.029 101.467 111.556 101.665 111.621 101.599C111.621 101.533 111.094 101.336 110.172 101.007C109.25 100.744 107.998 100.415 106.549 100.349C105.099 100.218 103.716 100.349 102.859 100.744C101.871 101.073 101.542 101.665 101.607 101.665Z" fill="#C8DBF4"/>
<path d="M102.925 99.8892C102.925 99.955 103.65 99.5604 104.901 99.1658C106.153 98.7712 107.866 98.3108 109.843 98.1793C111.819 98.0477 113.598 98.1793 114.85 98.4423C116.101 98.6396 116.892 98.9027 116.892 98.837C116.892 98.837 116.694 98.7054 116.365 98.6396C116.035 98.5081 115.508 98.3766 114.85 98.245C113.598 97.9819 111.753 97.7189 109.777 97.9162C107.8 98.0477 106.021 98.5739 104.77 99.0343C104.177 99.2973 103.65 99.4946 103.386 99.6919C103.123 99.8235 102.925 99.8892 102.925 99.8892Z" fill="#C8DBF4"/>
<path d="M91.5275 92.5888C91.5934 92.5888 92.2522 90.3527 92.9769 87.5904C93.7016 84.828 94.1628 82.5261 94.0969 82.5261C94.031 82.5261 93.3722 84.7623 92.6475 87.5246C91.9887 90.2869 91.4616 92.5888 91.5275 92.5888Z" fill="#C8DBF4"/>
<path d="M91.4617 92.5884C91.5934 92.5884 91.9887 91.1415 93.0428 89.6288C94.097 88.0503 95.4146 87.2611 95.4146 87.1953C95.4146 87.1296 95.0193 87.3269 94.4923 87.6557C93.9652 87.9846 93.3064 88.6423 92.7793 89.4315C91.6593 91.01 91.3958 92.5884 91.4617 92.5884Z" fill="#C8DBF4"/>
<path d="M91.5272 158.424C91.5931 158.424 91.659 157.898 91.9225 156.911C92.186 155.925 92.6472 154.544 93.4378 152.965C95.0189 149.742 97.9178 145.599 101.607 141.521C103.452 139.417 105.165 137.509 106.68 135.602C108.195 133.76 109.447 131.919 110.304 130.34C111.226 128.762 111.819 127.381 112.148 126.46C112.346 126 112.412 125.605 112.478 125.342C112.544 125.079 112.609 124.947 112.544 124.947C112.544 124.947 112.346 125.474 111.951 126.394C111.555 127.315 110.962 128.63 110.04 130.209C109.118 131.787 107.866 133.497 106.351 135.339C104.835 137.18 103.057 139.154 101.278 141.192C97.5883 145.336 94.6895 149.479 93.1743 152.768C92.3837 154.412 91.9225 155.793 91.7248 156.846C91.5931 157.372 91.5272 157.701 91.5272 158.029C91.5272 158.227 91.5272 158.424 91.5272 158.424Z" fill="#C8DBF4"/>
<path d="M73.3438 137.904C73.3438 137.904 73.6732 138.101 74.2661 138.43C74.8591 138.759 75.7156 139.285 76.7038 140.074C77.692 140.864 78.812 141.85 79.932 143.034C81.052 144.218 82.2379 145.599 83.4238 147.112C85.7955 150.137 88.0355 152.768 89.419 154.872C90.0778 155.925 90.6049 156.78 90.9343 157.437C91.2637 158.029 91.4613 158.424 91.4613 158.424C91.4613 158.424 91.4614 158.358 91.3955 158.161C91.3296 157.964 91.1978 157.766 91.0661 157.437C90.8025 156.78 90.3414 155.859 89.6826 154.807C88.3649 152.636 86.1908 149.94 83.7532 146.98C82.5673 145.467 81.3814 144.086 80.1955 142.902C79.0096 141.719 77.8897 140.732 76.9014 139.943C75.8473 139.219 74.9908 138.693 74.332 138.364C74.0026 138.233 73.7391 138.101 73.6073 138.035C73.4756 137.97 73.3438 137.904 73.3438 137.904Z" fill="#C8DBF4"/>
<path d="M73.0148 144.547C73.0148 144.612 73.8054 144.678 75.0572 144.81C76.309 144.941 78.0219 145.204 79.8007 145.73C81.5796 146.322 83.0948 147.177 84.0831 147.967C85.0713 148.756 85.5325 149.348 85.5984 149.348C85.5984 149.348 85.5325 149.151 85.2689 148.887C85.0713 148.624 84.676 148.23 84.2148 147.835C83.2266 146.98 81.7772 146.059 79.8666 145.467C78.0219 144.875 76.2431 144.744 74.9913 144.612C73.8054 144.547 73.0148 144.547 73.0148 144.547Z" fill="#C8DBF4"/>
<path d="M84.9393 148.624C85.0711 148.558 84.1488 147.177 83.424 145.336C82.7652 143.428 82.6334 141.784 82.5017 141.85C82.4358 141.85 82.4358 142.245 82.5675 142.902C82.6334 143.56 82.8311 144.481 83.1605 145.467C83.4899 146.454 83.9511 147.243 84.3464 147.769C84.6758 148.361 84.9393 148.69 84.9393 148.624Z" fill="#C8DBF4"/>
<path d="M67.4805 120.08C67.4805 120.08 67.6123 120.146 67.81 120.278C68.0735 120.409 68.4029 120.541 68.7323 120.738C69.1276 120.935 69.6547 121.133 70.2476 121.461C70.8405 121.725 71.4993 122.053 72.1582 122.448C72.4876 122.645 72.8829 122.843 73.2782 123.04C73.6735 123.237 74.0029 123.5 74.464 123.763C75.2546 124.224 76.1111 124.881 76.9675 125.473C78.6805 126.723 80.4593 128.301 82.1722 130.011C83.8852 131.787 85.3346 133.629 86.5864 135.339C87.1793 136.194 87.7722 137.049 88.2334 137.904C88.4969 138.298 88.6946 138.693 88.8922 139.088C89.0899 139.482 89.2875 139.877 89.4851 140.206C89.8804 140.929 90.144 141.587 90.4075 142.179C90.671 142.771 90.8687 143.231 91.0663 143.692C91.1981 144.086 91.3298 144.415 91.4616 144.678C91.5275 144.875 91.5934 145.007 91.5934 145.007C91.5934 145.007 91.5934 144.875 91.5275 144.678C91.4616 144.415 91.3299 144.086 91.1981 143.692C91.0663 143.231 90.8687 142.771 90.6052 142.179C90.3416 141.587 90.0781 140.929 89.6828 140.206C89.4852 139.811 89.2875 139.482 89.0899 139.088C88.8922 138.693 88.6287 138.298 88.4311 137.904C87.9699 137.049 87.3769 136.26 86.8499 135.339C85.5981 133.563 84.1487 131.721 82.4358 129.946C80.7229 128.17 78.8782 126.657 77.1652 125.408C76.3088 124.816 75.4523 124.224 74.6617 123.698C74.2664 123.435 73.8711 123.171 73.4758 122.974C73.0805 122.777 72.6852 122.58 72.3558 122.382C71.6311 121.988 70.9723 121.659 70.3793 121.396C69.7864 121.133 69.2593 120.935 68.8641 120.738C68.4688 120.606 68.1394 120.475 67.8758 120.343C67.6123 120.146 67.4805 120.08 67.4805 120.08Z" fill="#C8DBF4"/>
<path d="M81.8429 129.683C81.8429 129.683 81.7112 129.091 81.0523 128.499C80.3935 127.907 79.2076 127.315 77.89 127.249C76.5065 127.183 75.3206 127.578 74.53 127.907C73.7394 128.236 73.2782 128.499 73.2782 128.499C73.2782 128.565 73.8053 128.367 74.5959 128.104C75.3865 127.841 76.5724 127.512 77.89 127.578C79.2076 127.644 80.2617 128.104 80.9206 128.63C81.5794 129.222 81.777 129.748 81.8429 129.683Z" fill="#C8DBF4"/>
<path d="M84.0169 131.919C84.0828 131.853 83.2922 130.669 83.0946 128.959C82.8969 127.249 83.424 125.934 83.2922 125.868C83.2263 125.868 83.0945 126.197 82.8969 126.723C82.7651 127.249 82.6334 128.104 82.7652 128.959C82.8969 129.814 83.1604 130.604 83.424 131.13C83.7534 131.656 83.951 131.919 84.0169 131.919Z" fill="#C8DBF4"/>
<path d="M107.405 161.712C106.878 170.459 104.243 179.404 100.158 188.415H82.4355C78.5485 179.47 76.1108 170.591 75.6496 161.712H107.405Z" fill="#C8DBF4"/>
<path d="M78.5487 175.853C78.5487 175.918 84.4122 176.05 91.5934 176.05C98.7745 176.05 104.638 175.984 104.638 175.853C104.638 175.787 98.7745 175.655 91.5934 175.655C84.4122 175.721 78.5487 175.787 78.5487 175.853Z" fill="#FAFAFA"/>
<path d="M78.9441 179.075C78.9441 179.141 84.4123 179.273 91.1323 179.273C97.8523 179.273 103.32 179.207 103.32 179.075C103.32 179.009 97.8523 178.878 91.1323 178.878C84.4123 178.878 78.9441 178.944 78.9441 179.075Z" fill="#FAFAFA"/>
<path d="M99.8945 167.434C99.8286 167.434 99.6968 169.276 99.6968 171.512C99.6968 173.748 99.7627 175.59 99.8945 175.59C99.9604 175.59 100.092 173.748 100.092 171.512C100.092 169.276 100.026 167.434 99.8945 167.434Z" fill="#FAFAFA"/>
<path d="M90.4074 167.434C90.3415 167.434 90.2098 169.342 90.2098 171.644C90.2098 173.945 90.2757 175.853 90.4074 175.853C90.4733 175.853 90.6051 173.945 90.6051 171.644C90.6051 169.342 90.4733 167.434 90.4074 167.434Z" fill="#FAFAFA"/>
<path d="M81.5133 167.369C81.4474 167.369 81.3157 169.276 81.3157 171.644C81.3157 174.011 81.3815 175.919 81.5133 175.919C81.5792 175.919 81.7109 174.011 81.7109 171.644C81.6451 169.276 81.5792 167.369 81.5133 167.369Z" fill="#FAFAFA"/>
<path d="M76.2427 167.434C76.2427 167.5 83.0944 167.632 91.5273 167.632C99.9603 167.632 106.812 167.566 106.812 167.434C106.812 167.303 99.9603 167.237 91.5273 167.237C83.0944 167.303 76.2427 167.368 76.2427 167.434Z" fill="#FAFAFA"/>
<path d="M113.733 179.372C113.733 179.372 111.796 182.18 109.053 182.794C106.31 183.407 103.632 184.375 103.599 186.021C103.567 187.7 111.506 188.668 114.636 186.989C119.316 184.504 119.8 185.247 120.316 183.988C120.832 182.729 119.703 179.405 119.735 178.985C119.767 178.533 113.733 179.372 113.733 179.372Z" fill="#1C143F"/>
<path d="M114.056 177.985C114.056 177.985 113.701 179.34 113.765 179.373C113.83 179.405 119.929 180.115 119.735 179.017C119.574 178.146 119.38 177.178 119.38 177.178L114.056 177.985Z" fill="#81807E"/>
<path d="M134.322 179.179C134.322 179.179 132.934 181.858 130.546 182.794C127.997 183.762 125.964 184.892 126.028 186.505C126.06 188.119 132.257 189.765 136.742 186.667C139.582 184.698 140.486 184.698 140.937 183.472C141.389 182.245 140.163 179.017 140.163 178.63C140.163 178.146 134.322 179.179 134.322 179.179Z" fill="#1C143F"/>
<path d="M134.257 177.791C134.257 177.791 134.29 179.146 134.322 179.179C134.386 179.211 140.292 179.663 140.131 178.598C140.002 177.759 139.55 176.726 139.55 176.726L134.257 177.791Z" fill="#81807E"/>
<path d="M112.571 95.7134C112.571 95.7134 107.085 119.017 105.826 126.117C104.761 132.153 103.922 138.447 104.406 142.804C105.052 148.194 112.99 176.209 112.635 177.791C112.313 179.372 120.961 178.049 120.961 178.049C120.961 178.049 114.927 146.838 116.121 141.029C117.024 136.736 124.834 108.14 126.06 109.592C127.254 111.044 128.739 136.575 129.642 140.803C130.546 145.031 133.257 178.501 133.257 178.501C133.257 178.501 139.356 179.372 140.97 178.049C140.97 178.049 141.712 149.485 141.131 141.545C140.905 138.511 144.81 105.267 139.808 91.8726C137.226 84.7719 112.571 95.7134 112.571 95.7134Z" fill="#2D1686"/>
<path d="M146.133 46.1703L134.451 41.5226L124.447 42.3295L122.381 43.2332L110.28 49.2688L113.442 71.4745C114.507 75.4444 112.603 83.1906 112.41 87.2897C112.248 90.5495 113.345 92.0342 113.378 92.0665L139.421 88.5484C139.421 88.5484 140.582 80.6731 140.679 76.4127L146.133 46.1703Z" fill="white"/>
<path d="M113.345 92.0986C113.345 92.0986 112.732 92.7763 112.571 95.7134C112.571 95.7134 137.226 92.9377 139.84 91.8403C139.84 91.8403 139.937 88.6128 139.388 88.5482C138.807 88.4837 113.345 92.0986 113.345 92.0986Z" fill="#273037"/>
<path d="M133.773 89.1292C133.773 89.1292 134.322 92.3891 134.354 93.2605L135.483 93.0346C135.483 93.0346 135.161 89.5811 134.999 89.0001L133.773 89.1292Z" fill="#2D1686"/>
<path d="M115.411 91.7113C115.411 91.7113 114.991 94.6807 114.959 95.8103L116.153 95.6489C116.153 95.6489 116.411 91.9372 116.54 91.5499L115.411 91.7113Z" fill="#2D1686"/>
<path d="M134.386 40.7155C134.322 44.4272 126.803 46.4929 126.803 46.4929C126.803 46.4929 123.672 42.7166 124.415 42.3616C124.705 42.2325 124.834 41.6515 124.866 41.006C124.899 40.3928 124.866 39.7472 124.834 39.3277C124.802 39.0695 124.802 38.9081 124.802 38.9081C124.802 38.9081 125.867 37.8107 127.222 36.5197C129.61 34.2604 132.87 31.3555 132.87 32.5175C132.87 32.582 132.87 32.6466 132.837 32.7434C132.289 35.2932 134.386 40.7155 134.386 40.7155Z" fill="#FFAE73"/>
<path d="M131.514 35.261C131.514 35.2933 131.192 35.7451 130.643 36.3906C129.481 37.7785 127.319 40.0701 124.899 41.0061C124.931 40.3928 124.899 39.7473 124.866 39.3277C124.608 39.3277 124.382 39.2955 124.124 39.2309C124.802 38.1013 125.77 36.9393 125.77 36.9393L127.287 36.5197L131.514 35.261Z" fill="#D79573"/>
<path d="M132.934 32.5498C132.289 33.9054 131.676 34.906 131.482 35.2933C131.353 35.5515 131.062 35.9711 130.611 36.4229C129.384 37.714 127.093 39.3923 124.834 39.3277C124.576 39.3277 124.35 39.2955 124.092 39.2309C123.188 39.0373 122.091 38.6177 121.51 37.5203C116.831 28.709 120.219 21.5115 120.219 21.5115C120.219 21.5115 132.999 18.0257 135 21.7374C136.419 24.3195 134.483 29.3545 132.934 32.5498Z" fill="#FFAE73"/>
<path d="M120.219 21.5115C120.219 21.5115 119.025 21.4469 118.735 19.2845C118.444 17.1542 119.025 16.541 119.025 16.541C119.025 16.541 124.318 14.4108 126.189 14.1526C128.093 13.8621 132.74 13.6039 133.838 14.7981C133.838 14.7981 136.484 14.2172 137.226 18.4453C138.388 25.1909 133.321 31.7106 133.321 31.7106C133.321 31.7106 133.354 27.3211 132.353 26.7402C131.353 26.1592 130.481 27.5471 130.481 27.5471L128.416 27.9021C128.416 27.9021 131.546 21.3824 127.803 21.1564C124.059 20.8982 122.381 21.8665 120.219 21.5115Z" fill="#232729"/>
<path d="M130.546 25.7719C130.74 23.8353 134.386 23.093 134.128 25.1263C133.87 27.1597 132.095 29.0963 131.256 29.0317C130.449 28.9672 130.417 27.2565 130.546 25.7719Z" fill="#EEA886"/>
<path d="M155.815 75.1861C155.815 75.1538 155.815 75.0893 155.815 75.057C155.75 72.2167 154.298 60.8879 151.845 53.3677C150.651 49.7205 150.393 47.1707 149.941 46.848C149.134 46.2993 142.067 44.2982 139.098 43.1685C137.743 42.6521 137.807 42.6844 137.259 42.4907C136.936 42.8135 135.355 44.6209 133.935 46.5897C130.837 50.8179 126.803 57.6926 127.416 64.0187C127.61 66.0521 127.868 68.9569 128.255 72.249C128.287 72.5395 128.319 72.7977 128.352 73.0882C128.449 73.8305 128.545 74.6051 128.674 75.3798C128.739 75.8316 128.836 76.3158 128.9 76.7999C129.707 81.7058 132.289 85.0625 134.58 89.0647C134.612 89.097 134.612 89.1292 134.645 89.1615C134.645 89.1938 134.677 89.1938 134.677 89.2261C134.709 89.3229 134.774 89.3875 134.806 89.4843C134.871 89.6134 134.967 89.7748 135.032 89.9039C135.064 90.0007 135.129 90.0652 135.161 90.1621C135.613 90.969 136.032 91.8081 136.452 92.615C136.71 93.1637 136.968 93.6801 137.226 94.2288C137.259 94.2934 137.291 94.3256 137.291 94.3902C137.291 94.3902 137.71 95.3262 138.259 96.5204C138.453 96.9723 138.679 97.4564 138.872 97.9083C139.034 98.231 139.163 98.586 139.324 98.9088C139.453 99.1993 139.582 99.4575 139.679 99.7157C139.937 100.297 140.163 100.813 140.324 101.168C140.453 101.426 140.518 101.62 140.55 101.685C141.325 103.589 141.906 105.041 142.164 105.719C142.261 105.977 142.325 106.139 142.325 106.139L150.199 101.943C151.684 101.233 150.909 97.3273 150.361 95.8103C149.909 94.5516 149.231 93.196 148.489 91.8081C148.199 91.2272 147.876 90.6462 147.553 90.0652C150.038 85.9017 152.523 81.6413 154.104 78.7042C155.169 76.7999 155.815 75.5089 155.815 75.1861ZM143.261 63.3086C143.261 63.2763 143.261 63.2763 143.261 63.3086C143.261 63.2763 143.261 63.2441 143.293 63.2441C143.293 63.2118 143.293 63.2118 143.293 63.1795V63.1472C143.293 63.1472 147.134 68.9246 146.843 73.9273C146.811 74.702 146.004 76.6708 144.81 79.2206C144.391 80.1566 143.907 81.1248 143.39 82.1899C143.358 82.1577 143.358 82.0931 143.326 82.0608C142.583 80.3502 142.099 78.7042 142.099 77.3163C142.164 77.284 142.487 66.278 143.261 63.3086Z" fill="#4E33B5"/>
<path d="M83.4624 66.8267L101.341 70.5707L109.86 49.1396C110.054 49.0105 112.507 47.7195 114.12 46.9771C115.798 46.2025 117.928 45.2665 119.832 44.4273C120.736 44.04 121.575 43.6527 122.317 43.33L122.382 43.3622C122.382 43.3622 121.317 46.7512 119.961 55.1752C119.929 55.4657 119.864 55.7561 119.832 56.0466C119.832 56.0789 119.832 56.1112 119.8 56.1434C119.768 56.3371 119.735 56.5308 119.703 56.7244C119.703 56.7567 119.703 56.7567 119.703 56.789C119.671 56.9181 119.671 57.0472 119.639 57.2085C119.574 57.5313 119.542 57.8863 119.477 58.2414C118.864 62.3404 118.025 69.3443 117.186 76.3804C116.54 81.9318 115.056 87.6446 114.604 91.905C114.507 92.7442 114.281 93.8416 113.991 95.1003C113.959 95.2294 113.926 95.3908 113.894 95.5199C112.571 100.91 110.022 108.495 110.022 108.495L109.279 107.817L107.053 105.848C106.536 105.396 106.343 104.686 106.569 104.073C107.795 100.264 111.958 86.7732 112.732 77.2841C112.958 74.3147 112.055 71.5067 111.538 68.8278C111.538 68.8601 111.506 68.8601 111.506 68.8924C111.054 70.0543 110.57 71.3453 110.086 72.6041C108.763 75.9608 107.408 79.0593 106.859 79.2529C105.601 79.7048 82.0747 73.5078 81.9134 72.6041L83.4624 66.8267Z" fill="#4E33B5"/>
<path d="M135.161 51.6894L131.514 53.6582L133.063 55.1752L128.9 76.7354C128.061 71.6681 127.674 66.8913 127.384 63.9542C126.415 54.1747 136.581 43.1041 137.226 42.4263C137.71 42.6199 138.227 42.8136 138.775 43.0072L135.161 51.6894Z" fill="#4E33B5"/>
<path d="M122.381 43.2654C122.381 43.2654 121.026 47.5581 119.445 58.2413C118.832 62.3404 117.992 69.3442 117.153 76.3803L116.314 56.1757L118.057 54.3683L116.508 52.4963L119.8 44.3628C120.703 43.9754 121.542 43.5881 122.285 43.2654H122.381Z" fill="#4E33B5"/>
<path d="M137.42 42.4907L134.387 40.7156C134.387 40.7156 134.29 42.2971 126.803 46.4929L128.933 52.2703L137.42 42.4907Z" fill="white"/>
<path d="M124.834 41.5226C124.834 41.5226 124.963 43.2332 126.835 46.4931L122.672 51.6895L122.381 43.2655L124.834 41.5226Z" fill="white"/>
<path d="M126.835 46.4929C126.835 46.4929 127.642 49.5914 127.352 50.4628C127.352 50.4628 125.577 51.0761 124.318 50.3015C124.318 50.3015 125.222 48.139 126.835 46.4929Z" fill="#E34208"/>
<path d="M125.835 90.1621C125.835 90.1621 122.22 90.5817 120.994 90.8722L121.155 94.7776L125.899 94.2934L125.835 90.1621Z" fill="#69737A"/>
<path d="M125.028 50.0111C125.028 50.0111 120.994 59.8552 121.639 70.8612C122.317 82.2869 123.446 86.4182 123.446 86.4182L125.931 89.4198L127.029 85.7081C127.029 85.7081 123.672 71.1517 125.835 56.9826C126.222 54.4006 126.803 49.5592 126.803 49.5592L125.028 50.0111Z" fill="#F25B24"/>
<path d="M137.194 96.4881C137.194 96.4881 136.323 98.1665 135.451 98.4247C134.58 98.7152 133.321 100.071 133.321 100.071L139.453 103.169C139.453 103.169 141.066 100.103 141.163 98.1665C141.228 96.2299 137.194 96.4881 137.194 96.4881Z" fill="#EEA886"/>
<path d="M136.613 96.6494L136.194 97.424C136.194 97.424 140.066 100.167 141.131 100.329L141.486 99.296L136.613 96.6494Z" fill="#DECBC4"/>
<path d="M136.194 96.6818C136.194 96.6818 139.098 99.0057 141.551 100.071L149.812 85.7726L145.552 77.8328C145.552 77.8328 136.387 95.294 136.194 96.6818Z" fill="#4E33B5"/>
<path d="M111.571 63.8896C111.442 66.5362 111.442 68.8924 111.442 68.8924C111.442 68.8924 111.442 68.9892 111.442 69.086C111.442 69.0538 111.442 68.9892 111.409 68.9569C110.958 70.1189 110.474 71.4099 109.989 72.6686C109.86 71.2162 109.86 69.8929 109.893 68.6342C110.086 61.2107 112.507 57.3376 112.507 57.3376C111.958 58.6287 111.7 61.3721 111.571 63.8896Z" fill="#4E33B5"/>
<path d="M148.521 91.7759L141.938 99.4575L147.585 90.033C147.908 90.6139 148.231 91.1949 148.521 91.7759Z" fill="#4E33B5"/>
<path d="M100.566 82.1577H85.3019C84.2692 82.1577 83.3333 81.4799 83.1074 80.4794L76.4918 54.1746C76.1368 52.7868 77.234 51.4957 78.6862 51.4957H93.9506C94.9832 51.4957 95.9191 52.1735 96.145 53.1741L102.761 79.5111C103.116 80.8344 102.018 82.1577 100.566 82.1577Z" fill="#F25B24"/>
<path d="M81.9131 74.831C82.6554 74.1532 84.1076 73.7659 85.3339 72.9913C86.5602 72.1844 85.5275 71.3775 85.5275 71.3775C86.7861 70.9579 86.657 70.4092 86.4957 70.0219C86.2698 69.5055 84.8821 69.6669 84.8821 69.6669C84.8821 69.6669 86.1084 69.4087 86.6247 69.1828C87.1411 68.9568 86.9475 68.1177 86.173 67.8272C85.3984 67.569 82.2036 68.3113 82.2036 68.3113C82.2036 68.3113 82.7199 68.0531 84.3012 67.3108C85.8825 66.5362 86.2375 65.8584 85.3016 65.5356C84.6562 65.3097 83.3976 65.7938 80.945 67.3753C79.1055 68.5695 79.2669 68.7309 79.2669 68.7309C79.2669 68.7309 81.0095 75.6379 81.9131 74.831Z" fill="#FFAE73"/>
<path d="M60.5408 25.9408L25.4524 34.5474L45.6769 41.1844L60.5408 25.9408Z" fill="#9DB6FE"/>
<path d="M24.4698 35.5435L30.0092 58.1445L62.9023 50.0798C65.3903 49.4656 66.882 46.8139 66.2279 44.1567L61.8675 26.3759L46.0211 42.6156L24.4698 35.5435Z" fill="#9DB6FE"/>
<path d="M54.2457 27.483C54.2742 27.7947 54.3256 28.1026 54.4017 28.4181C54.6318 29.376 55.0785 30.2275 55.6773 30.9364L60.5407 25.9408L54.2457 27.483Z" fill="#9C4D30"/>
<path d="M61.9005 32.9695C62.4194 32.8478 62.9022 32.6501 63.345 32.4238L61.8694 26.3873L56.5746 31.8182C58.0287 32.9471 59.9751 33.443 61.9005 32.9695Z" fill="#9C4D30"/>
<path d="M70.0543 28.5724C72.9242 24.5536 71.9928 18.9693 67.974 16.0994C63.9552 13.2295 58.3709 14.1609 55.501 18.1797C52.6311 22.1984 53.5625 27.7828 57.5813 30.6527C61.6001 33.5225 67.1844 32.5912 70.0543 28.5724Z" fill="#F25B24"/>
<path d="M65.421 27.8945L63.3707 28.3546L61.8425 21.6207L60.5586 21.9192L60.0985 19.869L63.4162 19.1131L65.421 27.8945Z" fill="white"/>
</svg>
