<svg width="193" height="193" viewBox="0 0 193 193" fill="none" xmlns="http://www.w3.org/2000/svg">
<path d="M148.384 50.1403C148.066 44.4947 138.749 44.252 138.749 44.252C138.749 44.252 130.691 52.3116 128.873 52.1584C127.055 52.0051 134.428 43.9199 134.428 43.9199C131.059 42.8598 121.424 45.2355 121.424 45.2355C121.424 45.2355 119.683 56.2584 117.954 55.6581C116.226 55.0578 119.988 45.9763 119.988 45.9763C116.454 46.2701 112.539 49.5144 112.539 49.5144C107.328 55.0322 114.649 61.4697 114.649 61.4697C114.649 61.4697 113.963 65.276 110.722 69.1206C110.722 69.1206 110.023 69.8104 109.209 71.0621L110.112 71.2537C110.239 71.0238 110.366 70.8066 110.506 70.6023C110.506 70.6023 110.506 70.6023 110.506 70.5895C110.595 70.4618 110.734 70.283 110.887 70.0658C111.281 69.5805 111.548 69.2228 111.726 68.9546C112.921 67.4218 114.573 65.4548 115.476 65.1483C115.476 65.1483 115.399 64.9822 115.374 64.6885C115.412 64.829 115.437 64.9822 115.476 65.1483C116.327 68.8141 123.966 71.0238 128.466 71.0493C132.978 71.0749 131.351 69.4527 129.445 66.9748C127.538 64.4969 122.556 63.986 121.272 62.9003C120.001 61.8146 122.263 61.4825 125.098 62.3127C127.932 63.143 128.758 66.3489 133.322 67.7795C137.885 69.21 143.274 61.176 143.274 61.176C139.855 61.4953 134.466 58.4937 134.478 57.3313C134.491 56.169 142.995 58.0977 144.393 58.0466C145.804 57.97 148.702 55.7858 148.384 50.1403Z" fill="#DAEBFD"/>
<path opacity="0.5" d="M92.1505 49.3069C92.1505 49.3069 97.7687 29.0748 110.162 18.3967C111.814 16.9789 114.318 18.435 113.95 20.5808C113.95 20.6192 113.937 20.6575 113.924 20.6958C113.225 24.3488 99.0779 38.0413 92.1505 49.3069Z" fill="#A2CDFC"/>
<path opacity="0.5" d="M89.9646 55.0163C89.9646 55.0163 104.391 30.8757 124.03 22.2413C125.225 21.7176 126.661 22.1902 127.233 23.3781C127.602 24.1444 127.652 25.2684 126.852 26.8906C124.742 31.2078 102.447 43.3675 89.9646 55.0163Z" fill="#A2CDFC"/>
<path opacity="0.5" d="M119.489 137.725C119.489 137.725 141.39 126.689 145.355 130.534C149.309 134.378 119.489 137.725 119.489 137.725Z" fill="#A2CDFC"/>
<path opacity="0.5" d="M115.93 139.053C115.93 139.053 145.254 136.46 145.711 142.604C146.169 148.735 115.93 139.053 115.93 139.053Z" fill="#A2CDFC"/>
<path d="M25.1182 13.9367C30.628 3.07905 49.2054 10.7038 49.2054 10.7038C49.2054 10.7038 58.142 33.5897 61.8518 34.8733C65.5762 36.1463 58.0213 13.8016 58.0213 13.8016C65.5735 14.6312 82.5236 27.6752 82.5236 27.6752C82.5236 27.6752 76.4346 50.9313 80.3499 51.2388C84.2632 51.5589 84.6978 30.3714 84.6978 30.3714C91.405 34.0286 96.3482 43.8075 96.3482 43.8075C101.856 59.2223 81.8613 65.5575 81.8613 65.5575C81.8613 65.5575 79.927 73.6564 82.9835 84.0556C82.9835 84.0556 83.7556 86.0134 84.297 89.189L82.3414 88.777C82.2889 88.2127 82.2198 87.6717 82.1237 87.1394L82.1257 87.1267C82.1277 87.1141 82.1277 87.1141 82.1171 87.0995C82.0413 86.7643 81.9477 86.297 81.8198 85.7209C81.471 84.4246 81.2482 83.4715 81.1237 82.7924C80.103 78.7396 78.5266 73.3966 77.0171 72.0336C77.0171 72.0336 77.3035 71.7685 77.6211 71.2238C77.4266 71.4776 77.2282 71.7566 77.0171 72.0336C72.1816 78.5369 55.2222 76.2359 46.3063 72.3853C37.3924 68.5222 41.9997 66.728 47.9146 63.498C53.8295 60.268 64.0914 63.581 67.5363 62.5472C70.9937 61.5153 66.8009 58.8885 60.4946 58.0744C54.1882 57.2603 49.7928 62.8505 39.5605 61.7143C29.3409 60.5801 25.6442 40.0467 25.6442 40.0467C32.1147 43.6536 45.3233 42.402 46.3043 40.1002C47.2852 37.7983 28.8567 34.2052 26.1436 32.885C23.4372 31.6046 19.621 24.7963 25.1182 13.9367Z" fill="#DAEBFD"/>
<path d="M148.939 96.724C147.083 89.8139 135.478 91.9725 135.478 91.9725C135.478 91.9725 127.598 104.056 125.31 104.349C123.022 104.643 130.038 92.6878 130.038 92.6878C125.602 92.2535 114.289 97.7202 114.289 97.7202C114.289 97.7202 115.001 111.821 112.713 111.54C110.425 111.247 112.713 99.0231 112.713 99.0231C108.417 100.313 104.413 105.358 104.413 105.358C99.3922 113.558 110.133 119.6 110.133 119.6C110.133 119.6 110.273 124.492 107.273 130.099C107.273 130.099 106.599 131.134 105.9 132.896H107.07C107.171 132.577 107.273 132.271 107.387 131.977V131.964C107.464 131.785 107.578 131.53 107.731 131.21C108.086 130.508 108.328 129.984 108.48 129.614C109.548 127.404 111.099 124.53 112.129 123.917C112.129 123.917 112.001 123.738 111.874 123.381C111.951 123.547 112.04 123.738 112.129 123.917C114.137 128.234 124.153 128.95 129.746 127.8C135.326 126.651 132.898 125.067 129.886 122.499C126.873 119.932 120.581 120.609 118.713 119.6C116.857 118.591 119.577 117.582 123.301 117.876C127.026 118.169 128.881 121.899 134.906 122.487C140.919 123.061 145.507 111.694 145.507 111.694C141.351 112.984 133.902 110.685 133.623 109.241C133.33 107.798 144.363 107.951 146.079 107.517C147.795 107.083 150.795 103.634 148.939 96.724Z" fill="#DAEBFD"/>
<path d="M27.5054 101.245C31.6364 93.3899 45.0846 99.176 45.0846 99.176C45.0846 99.176 51.351 115.959 54.0457 116.943C56.7404 117.914 51.4781 101.539 51.4781 101.539C56.9692 102.229 69.1844 111.949 69.1844 111.949C69.1844 111.949 64.4941 128.822 67.354 129.103C70.2013 129.384 70.7478 113.941 70.7478 113.941C75.6034 116.688 79.0862 123.879 79.0862 123.879C82.9376 135.183 68.2946 139.564 68.2946 139.564C68.2946 139.564 66.7947 145.452 68.9175 153.064C68.9175 153.064 69.464 154.508 69.8199 156.82L68.3963 156.5C68.3709 156.092 68.3201 155.696 68.2565 155.312C68.2565 155.312 68.2565 155.312 68.2565 155.3V155.287C68.2057 155.044 68.1421 154.699 68.0531 154.278C67.8116 153.333 67.6591 152.63 67.5701 152.132C66.871 149.169 65.7779 145.26 64.6975 144.238C64.6975 144.238 64.9008 144.047 65.1423 143.651C65.0025 143.842 64.85 144.034 64.6975 144.238C61.1003 148.913 48.7707 147.048 42.3136 144.124C35.8692 141.199 39.2376 139.947 43.572 137.66C47.9064 135.374 55.355 137.916 57.8844 137.201C60.4139 136.485 57.3887 134.531 52.8001 133.854C48.2114 133.19 44.9447 137.201 37.5089 136.255C30.073 135.31 27.6071 120.289 27.6071 120.289C32.2847 122.997 41.9195 122.244 42.6568 120.583C43.394 118.923 30.0095 116.074 28.0393 115.091C26.0818 114.107 23.3744 109.1 27.5054 101.245Z" fill="#C5E0FB"/>
<path d="M20.7244 165.552C18.5381 160.801 26.0502 156.547 26.0502 156.547C26.0502 156.547 36.1173 159.613 37.5282 158.693C38.9518 157.773 29.4313 154.389 29.4313 154.389C31.7193 152.051 40.6169 149.79 40.6169 149.79C40.6169 149.79 46.7944 158.042 47.9511 156.79C49.1078 155.551 42.1041 149.765 42.1041 149.765C45.1166 148.462 49.7179 149.394 49.7179 149.394C56.353 151.63 53.1626 160.085 53.1626 160.085C53.1626 160.085 55.3616 162.895 59.6705 164.632C59.6705 164.632 60.5349 164.888 61.7424 165.552L61.0815 166.101C60.8781 165.974 60.6747 165.846 60.4713 165.744C60.4713 165.744 60.4713 165.744 60.4586 165.744C60.3315 165.68 60.1409 165.59 59.9121 165.475C59.3782 165.245 59.0096 165.067 58.7427 164.939C57.1157 164.211 54.904 163.317 54.0396 163.47C54.0396 163.47 54.0269 163.304 53.9252 163.049C53.9634 163.176 54.0015 163.317 54.0396 163.47C54.9294 166.842 49.6417 171.964 45.9809 173.957C42.3075 175.949 42.943 173.905 43.426 171.044C43.909 168.183 47.7604 165.59 48.3324 164.147C48.9044 162.704 46.9088 163.419 44.9513 165.335C42.9939 167.251 43.7057 170.227 40.5915 173.382C37.49 176.537 29.6093 172.322 29.6093 172.322C32.5455 171.095 35.647 166.293 35.1385 165.348C34.6301 164.402 28.5162 169.69 27.3468 170.252C26.2028 170.814 22.9107 170.303 20.7244 165.552Z" fill="#D3E8FA"/>
<path d="M86.0985 111.2C85.9724 111.373 85.4564 112.202 86.1214 113.135C86.1673 113.193 86.1902 113.239 86.2132 113.285C94.1707 118.09 118.032 137.516 118.032 151.216V179.583H46.0126V151.204C46.0126 137.424 70.1948 117.687 77.9804 113.135C78.2327 112.79 78.3129 112.444 78.3129 112.156C78.3129 111.568 77.9804 111.165 77.9804 111.165C70.1834 106.522 46.0126 86.9228 46.0126 73.1424V44.775H118.021V73.1539C118.021 86.9228 93.9185 106.614 86.0985 111.2Z" fill="#9FD4FF"/>
<path d="M122.159 186.9H41.3108V179.791C41.3108 179.676 41.4026 179.583 41.5172 179.583H121.976C122.079 179.583 122.171 179.676 122.171 179.779V186.9H122.159Z" fill="#E34208"/>
<path d="M66.6288 152.967C66.2619 159.316 67.4659 173.016 67.3512 179.595H46.0126V151.216C46.0126 137.436 70.1948 117.698 77.9804 113.147C78.2327 112.801 78.3129 112.456 78.3129 112.168C78.3129 111.58 77.9804 111.177 77.9804 111.177C70.1834 106.533 46.0126 86.9343 46.0126 73.1539V44.775H60.288L70.4815 47.5749V70.0084C70.4815 70.0084 69.4725 76.4722 71.995 82.8209C74.5176 89.1696 79.9411 109.529 79.8609 112.179C79.7806 114.829 67.2595 142.079 66.6288 152.967Z" fill="#93C8FD"/>
<path d="M108.698 63.6369C104.329 63.706 96.8303 64.4895 84.6876 67.5774C76.3746 69.686 62.0418 68.0959 54.4626 67.0013C51.8025 66.6211 49.4289 68.6951 49.4289 71.3913V74.6635C49.4289 83.6738 73.5539 103.192 79.9291 108.193C80.8923 108.953 81.4656 110.117 81.4656 111.35V161.448C81.4656 163.153 80.6285 164.755 79.2297 165.734C74.2075 169.26 65.7568 179.584 65.7568 179.584H97.7361C97.7361 179.584 89.1594 169.617 84.3436 165.918C83.2428 165.077 82.6007 163.764 82.6007 162.381V111.327C82.6007 110.105 83.1511 108.942 84.1028 108.181C90.3404 103.146 113.949 83.5586 113.949 74.5598V68.8449C113.949 65.9298 111.576 63.5908 108.698 63.6369Z" fill="#F8E6E0"/>
<path d="M121.953 47.5748H41.5064C41.4032 47.5748 41.3114 47.4826 41.3114 47.3789V40.2698H122.16V47.3789C122.16 47.4941 122.068 47.5748 121.953 47.5748Z" fill="#E34208"/>
<path d="M151.921 88.481C151.921 88.481 155.451 88.8792 158.184 88.7163C161.605 88.5172 165.805 88.4267 166.602 89.3318C167.38 90.2369 167.38 90.2369 165.859 91.0334C164.683 91.6489 160.121 93.6582 157.044 92.7169C153.966 91.7575 150.038 91.9566 150.038 91.9566L151.921 88.481Z" fill="#FFAE73"/>
<path d="M114.25 54.8831C114.25 54.8831 120.821 87.4491 128.641 89.9291C132.497 91.16 149.387 93.459 154.329 93.4952C154.329 93.4952 155.487 92.4453 154.944 88.4628C154.944 88.4628 137.077 83.0864 134.398 79.7375C130.397 74.7594 135.43 58.3769 130.506 53.7789C125.582 49.1809 117.653 47.5517 114.25 54.8831Z" fill="#2D1686"/>
<path d="M135.85 161.146C135.85 161.146 128.952 165.611 129.621 167.054C129.716 167.246 133.519 174.116 133.519 174.116L138.43 182.872C138.43 182.872 140.493 181.64 139.519 178.811C138.544 176.002 137.952 170.691 140.455 167.246C143.092 163.629 135.85 161.146 135.85 161.146Z" fill="#232536"/>
<path d="M174.398 66.5938L166.846 89.8344L167.742 90.1252L175.293 66.8846L174.398 66.5938Z" fill="#F25B24"/>
<path d="M142.145 88.0238L142.112 89.5621L167.74 90.1095L167.773 88.5711L142.145 88.0238Z" fill="#F25B24"/>
<path d="M153.431 179.269C153.431 179.269 156.816 177.902 158.192 177.328C159.586 176.738 159.767 175.523 160.364 176.333C160.979 177.126 163.948 179.555 165.541 179.825C167.116 180.112 176.957 179.803 176.957 183.085C176.957 183.615 171.994 184.088 165.174 185.324C158.79 186.48 157.279 186.613 154.173 186.613C152.779 186.292 153.431 179.269 153.431 179.269Z" fill="#232536"/>
<path d="M151.052 132.415C151.106 128.867 146.889 118.929 143.739 112.937C138.797 103.343 135.683 95.8667 135.683 95.8667C135.683 95.8667 114.051 97.3692 114.16 100.302C114.377 105.859 119.355 110.801 121.527 113.209L126.162 117.698C126.162 117.698 130.741 122.242 134.018 126.134C138.399 131.347 137.131 133.501 139.268 140.579C141.186 146.933 152.542 180.926 152.542 180.926L162.263 176.89C162.263 176.89 150.98 137.918 151.052 132.415Z" fill="#2D1686"/>
<path d="M127.99 45.9406C127.99 45.9406 132.877 56.2408 133.366 61.2008C133.855 66.1608 135.593 76.6782 135.774 79.466C135.955 82.2537 135.774 95.9753 135.774 95.9753L110.938 106.529C110.938 106.529 115.3 98.4915 114.558 89.0421C113.816 79.5927 112.404 72.569 112.567 67.1203C113.128 48.5111 121.111 42.2659 121.111 42.2659L127.99 45.9406Z" fill="white"/>
<path d="M140.969 28.7435C140.969 28.7435 141.965 33.3415 140.716 33.6492C139.684 33.9026 140.462 38.3558 140.535 39.0799C140.607 39.7859 138.616 39.7134 138.109 40.0212C137.602 40.3108 134.977 45.0355 133.421 44.7459C131.864 44.4562 125.709 40.0936 124.424 37.6317C123.12 35.1517 124.134 25.9738 126.451 22.6611C128.75 19.3122 139.195 20.688 140.969 28.7435Z" fill="#FFAE73"/>
<path d="M131.9 42.1029C131.9 42.1029 131.737 42.5917 131.484 43.3339C131.375 43.6416 131.266 44.0218 131.14 44.4019C131.049 44.7096 130.94 45.0174 130.85 45.3432C130.234 47.4069 129.565 49.905 129.547 51.0997C129.51 53.3625 122.143 42.2115 122.143 42.2115C122.143 42.2115 124.46 35.2965 125.799 27.241C127.121 19.2036 131.9 42.1029 131.9 42.1029Z" fill="#FFAE73"/>
<path d="M141.186 29.5219C141.186 29.5219 144.535 25.7748 141.386 21.5207C138.236 17.2486 129.366 20.9234 128.461 20.9234C127.574 20.9234 122.722 20.0002 122.957 28.9065C123.157 36.7447 123.464 36.4732 123.464 36.4732C123.464 36.4732 125.944 33.2329 126.976 32.8347C128.587 32.2192 131.484 33.2329 131.484 33.2329C131.484 33.2329 131.067 29.1056 133.421 29.1599C135.774 29.2142 139.177 28.11 141.186 29.5219Z" fill="#292B2D"/>
<path d="M129.655 30.3907C129.619 29.8296 129.619 27.4401 127.356 28.1823C125.093 28.9245 126.958 33.9569 127.266 34.1017C127.573 34.2465 130.035 35.1516 129.655 30.3907Z" fill="#FFAE73"/>
<path d="M136.899 98.9696L135.701 95.7399L112.947 102.727V105.841L136.899 98.9696Z" fill="#404367"/>
<path d="M131.357 43.7503C131.357 43.7503 131.212 44.2752 130.977 44.945C130.886 45.2166 130.814 45.5243 130.705 45.8682C128.207 43.7141 127.23 41.216 127.211 41.1436C129.13 42.1935 131.357 43.7503 131.357 43.7503Z" fill="#C69474"/>
<path d="M130.054 49.6879C130.054 49.6879 131.809 52.3851 131.9 53.5436C131.936 53.9781 130.416 53.7066 130.416 53.7066L130.054 49.6879Z" fill="#F25B24"/>
<path d="M136.767 99.0117C136.767 99.0117 167.018 122.043 169.679 128.704C171.761 133.918 140.288 168.508 140.288 168.508C140.288 168.508 135.726 163.168 135.092 160.362C135.092 160.362 148.246 142.136 155.523 130.913C158.474 126.369 120.115 122.35 118.377 121.463C111.191 117.771 115.572 104.936 115.572 104.936L136.767 99.0117Z" fill="#2D1686"/>
<path d="M138.181 109.298C138.181 109.298 121.57 114.042 109.17 112.377C109.568 110.874 110.69 97.4787 110.274 70.8322C109.966 50.5577 112.21 46.0929 120.211 42.0018C120.41 42.201 131.103 47.5568 131.122 62.4369C131.122 63.3239 131.502 67.4914 131.502 67.4914C131.502 67.4914 131.321 73.2136 131.122 74.0825C130.307 77.884 131.61 75.1938 131.122 78.9048C130.941 80.2263 130.814 81.6744 130.959 82.9597C131.122 84.426 131.303 85.8199 131.502 87.1594C133.783 102.184 138.181 109.298 138.181 109.298Z" fill="#4E33B5"/>
<path d="M118.432 183.246H121.799C121.835 183.246 121.853 183.21 121.853 183.192V127.292C121.853 127.256 121.817 127.238 121.799 127.238H118.432C118.396 127.238 118.377 127.274 118.377 127.292V183.174C118.377 183.228 118.396 183.246 118.432 183.246Z" fill="#7C9BC7"/>
<path d="M104.475 186.921C106.122 182.631 112.494 179.445 120.134 179.445C127.755 179.445 134.145 182.649 135.792 186.921H104.475Z" fill="#7C9BC7"/>
<path d="M108.24 172.403H132.552C132.57 172.403 132.588 172.385 132.588 172.367L131.556 170.176C131.556 170.158 131.103 170.14 131.556 170.14H108.24C108.222 170.14 108.204 170.158 108.204 170.176V172.367C108.204 172.385 108.222 172.403 108.24 172.403Z" fill="#7C9BC7"/>
<path d="M100.364 133.248H139.649C141.771 133.248 143.513 131.582 143.513 129.555V123.998C143.513 121.97 141.771 120.305 139.649 120.305H100.364C98.2426 120.323 96.5 121.97 96.5 124.016V129.573C96.5 131.582 98.2426 133.248 100.364 133.248Z" fill="#F25B24"/>
<path d="M131.859 53.8575C131.859 53.8575 136.283 63.7846 137.272 75.2017C138.285 87.0445 137.988 91.3985 137.988 91.3985L136.505 94.6688L135.171 90.9147C135.171 90.9147 135.764 75.6661 132.18 61.1529C131.538 58.5211 130.426 53.5286 130.426 53.5286L131.859 53.8575Z" fill="#F25B24"/>
<path d="M131.52 88.6439C129.583 88.3543 128.026 88.0646 127.139 87.8112C121.672 86.2544 120.097 69.9262 117.346 60.2415C114.974 51.8782 119.265 46.3209 125.854 51.9688C125.908 52.005 125.962 52.0593 126.017 52.0955C128.696 54.4488 129.655 60.8389 130.126 66.6497C129.872 67.5005 129.565 68.3513 129.366 69.2202C128.551 73.0217 131.628 76.6964 131.14 80.4074C130.959 81.7289 130.832 83.177 130.977 84.4623C131.14 85.9105 131.321 87.3043 131.52 88.6439Z" fill="#2C1C82"/>
<path d="M153.876 83.2131C153.876 83.2131 154.709 83.6295 155.795 83.4846C156.863 83.3398 160.519 82.9597 161.063 83.3398C161.606 83.72 163.235 85.4397 163.633 85.8017C164.031 86.1638 164.52 87.5033 164.52 87.5033C164.068 87.7387 163.126 86.5801 162.583 86.4353C162.04 86.2905 157.406 87.2137 156.229 86.8879C155.035 86.562 153.279 85.7655 153.279 85.7655L153.876 83.2131Z" fill="#FFAE73"/>
<path d="M160.99 85.6206C160.972 85.693 161.913 87.7386 163.181 87.5756L162.348 86.0189L160.99 85.6206Z" fill="#FFAE73"/>
<path d="M155.777 83.4846C155.777 83.4846 157.442 82.6881 158.039 82.2537C158.039 82.2537 158.257 82.4528 158.202 82.67C158.112 83.0321 157.551 83.5932 157.551 83.5932L155.777 83.4846Z" fill="#FFAE73"/>
<path d="M126.868 48.4388C120.26 42.7909 114.468 48.5836 116.857 56.9287C119.609 66.6134 122.523 83.3761 127.99 84.9329C131.882 86.0372 149.007 87.1776 153.949 87.0509C153.949 87.0509 154.763 86.1639 154.093 82.2176C154.093 82.2176 134.108 79.3393 131.9 73.2751C131.122 71.1209 132.099 53.0186 127.03 48.5836C126.958 48.5293 126.922 48.4931 126.868 48.4388Z" fill="#4E33B5"/>
<path d="M122.548 41.1255C122.548 41.1255 127.31 47.8316 130.579 49.7791L130.182 54.409L121.093 42.283L122.548 41.1255Z" fill="white"/>
</svg>
