<svg width="42" height="42" viewBox="0 0 42 42" fill="none" xmlns="http://www.w3.org/2000/svg">
<g clip-path="url(#clip0)">
<path d="M22.2829 21.0113L27.7342 15.5598C28.089 15.2052 28.089 14.6319 27.7342 14.2773C27.3796 13.9227 26.8063 13.9227 26.4517 14.2773L21.0002 19.7288L15.5488 14.2773C15.1941 13.9227 14.6209 13.9227 14.2663 14.2773C13.9116 14.6319 13.9116 15.2052 14.2663 15.5598L19.7177 21.0113L14.2663 26.4628C13.9116 26.8174 13.9116 27.3907 14.2663 27.7453C14.443 27.9222 14.6754 28.0111 14.9076 28.0111C15.1398 28.0111 15.372 27.9222 15.5488 27.7453L21.0002 22.2938L26.4517 27.7453C26.6286 27.9222 26.8608 28.0111 27.093 28.0111C27.3251 28.0111 27.5573 27.9222 27.7342 27.7453C28.089 27.3907 28.089 26.8174 27.7342 26.4628L22.2829 21.0113Z" fill="#918D9A"/>
</g>
<defs>
<clipPath id="clip0">
<rect width="14" height="14" fill="white" transform="translate(14.0002 14)"/>
</clipPath>
</defs>
</svg>
